<svg xmlns="http://www.w3.org/2000/svg" xmlns:svg="http://www.w3.org/2000/svg" xmlns:xlink="http://www.w3.org/1999/xlink" id="svg2" width="114.3" height="114.3" version="1.0"><defs id="defs4"><linearGradient id="linearGradient3847"><stop id="stop3849" offset="0" style="stop-color:#d2d2d2;stop-opacity:1"/><stop id="stop3851" offset="1" style="stop-color:#9c9c9c;stop-opacity:1"/></linearGradient><linearGradient id="linearGradient9075" x1="525.143" x2="672.899" y1="809.37" y2="809.37" gradientTransform="matrix(0.1092019,0,0,0.1092019,-30.682288,-50.431113)" gradientUnits="userSpaceOnUse" xlink:href="#linearGradient3847"/><linearGradient id="linearGradient3973"><stop style="stop-color:#fff;stop-opacity:1" id="stop3975" offset="0"/><stop style="stop-color:#9c9c9c;stop-opacity:1" id="stop3977" offset="1"/></linearGradient><linearGradient id="linearGradient9055" x1="770.676" x2="978.64" y1="1181.792" y2="1406.315" gradientTransform="matrix(0.1617239,0,0,0.1617239,-75.478327,-110.97721)" gradientUnits="userSpaceOnUse" xlink:href="#linearGradient3973"/><linearGradient id="linearGradient3795"><stop style="stop-color:#ffffb4;stop-opacity:1" id="stop3797" offset="0"/><stop style="stop-color:#ff0;stop-opacity:1" id="stop3799" offset="1"/></linearGradient><linearGradient id="linearGradient3477"><stop id="stop3479" offset="0" style="stop-color:#15649b;stop-opacity:1"/><stop id="stop3481" offset="1" style="stop-color:#2187ff;stop-opacity:1"/></linearGradient><linearGradient id="linearGradient3945"><stop id="stop3947" offset="0" style="stop-color:#fff;stop-opacity:1"/><stop id="stop3949" offset="1" style="stop-color:#e0e0e0;stop-opacity:1"/></linearGradient><linearGradient id="linearGradient15834" x1="440.432" x2="440.432" y1="659.136" y2="675.136" gradientUnits="userSpaceOnUse" xlink:href="#linearGradient3945"/><linearGradient id="linearGradient12879" x1="440.432" x2="440.432" y1="659.136" y2="675.136" gradientUnits="userSpaceOnUse" xlink:href="#linearGradient3945"/><linearGradient id="linearGradient21968" x1="8920.515" x2="10214.677" y1="10443.72" y2="9626.651" gradientTransform="matrix(-1.4959172e-2,5.8757668e-3,-5.8757668e-3,-1.4959172e-2,273.27639,127.81644)" gradientUnits="userSpaceOnUse" xlink:href="#linearGradient3795"/><linearGradient id="linearGradient21970" x1="822.187" x2="830.63" y1="30.722" y2="15.792" gradientTransform="matrix(1.75,0,0,2.75,-1400,0)" gradientUnits="userSpaceOnUse" xlink:href="#linearGradient3477"/><path style="opacity:.3;fill:none;stroke:#000;stroke-width:.35433072;stroke-linecap:round;stroke-linejoin:round;stroke-miterlimit:4;stroke-opacity:1;stroke-dashoffset:0;marker:none;visibility:visible;display:inline;overflow:visible;enable-background:accumulate" id="path9417" d="M 104.48768,43.583453 C 97.276687,17.414362 70.216278,2.0456514 44.046565,9.2564763 22.841714,15.099279 8.1003321,34.318488 7.9539035,56.312602"/></defs><metadata id="metadata7"/><g id="layer2"><path id="path8684" d="m 60.714287,63.585716 a 16.25,23.214285 0 1 1 -32.5,0 16.25,23.214285 0 1 1 32.5,0 z" transform="matrix(3.5169231,0,0,2.4618462,-99.227476,-99.388252)" style="fill:url(#linearGradient21970);fill-opacity:1;fill-rule:nonzero;stroke:none;stroke-width:.33985066;marker:none;visibility:visible;display:inline;overflow:visible;enable-background:accumulate"/><path style="fill:url(#linearGradient21968);fill-opacity:1;stroke:none;display:inline" id="path3953" d="m 82.924123,54.900712 c -1.107027,1.388846 -2.352538,2.603576 -3.697072,3.64579 1.854574,-6.045374 -2.143902,-14.827191 -10.154403,-21.211317 -8.010495,-6.384125 -17.458533,-8.318728 -22.93833,-5.162576 0.716119,-1.543027 1.622506,-3.028034 2.729534,-4.41688 7.492212,-9.399547 21.200146,-10.948144 30.599833,-3.456877 9.399689,7.49127 10.952649,21.202311 3.460438,30.60186 z"/><path style="fill:none;stroke:#000;stroke-width:1;stroke-linecap:butt;stroke-linejoin:miter;stroke-miterlimit:0;stroke-opacity:0;stroke-dasharray:none;stroke-dashoffset:0;marker:none;visibility:visible;display:inline;overflow:visible;enable-background:accumulate" id="path13413" d="m 5,59.300003 c 10,64.999997 95,64.999997 105,0"/><path style="fill:url(#linearGradient9055);fill-opacity:1;stroke:none;display:inline" id="path3876" d="m 53.851074,56.484848 c 5.995376,1.680438 4.065273,7.426166 4.065273,7.426166 l 9.256254,9.508109 c 0,0 7.204431,-7.547513 13.60838,2.74453 2.744535,-5.374735 13.379669,-7.433135 18.525699,-2.630188 2.17448,-5.719503 8.49924,-10.89037 14.74945,-7.390579 C 109.45323,89.951276 91.391412,113.49362 58,114.3 c -7,0 -8.369486,-8.40486 -1.805596,-10.11909 0,0 -4.438591,-12.542052 7.204446,-13.608373 -1.829696,-3.08763 -3.087616,-7.204453 1.829699,-8.91979 L 54.600016,67.227348 c 0,0 -7.059461,1.091204 -7.290883,-5.212334 3.888121,-7.204434 2.299508,-3.765974 6.541941,-5.530166 z"/><g id="g3872" transform="matrix(0.08630422,-0.06690771,0.06690771,0.08630422,-52.276601,-5.2740886)" style="fill:#292929;fill-opacity:1;display:inline"><path id="path3866" d="m 342.23968,1041.0751 c 0,0 -81.31728,0 -99.70205,0 -11.33578,0 3.16878,-49.88686 27.57716,-69.29642 24.36179,-19.37251 57.27565,-116.67262 57.27565,-116.67262 l 14.84924,185.96904 z" style="fill:#292929;fill-opacity:1;stroke:none"/><path style="fill:#292929;fill-opacity:1;stroke:none" id="path3870" d="m 423.88199,1041.0751 c 0,0 81.31728,0 99.70205,0 11.33578,0 -3.16878,-49.88686 -27.57716,-69.29642 -24.36179,-19.37251 -57.27565,-116.67262 -57.27565,-116.67262 l -14.84924,185.96904 z"/></g><rect style="fill:#4a4a4a;fill-opacity:1;stroke:none;display:inline" id="rect3857" width="11.752" height="7.549" x="-2.153" y="71.901" rx="1.012" ry="1.012" transform="matrix(0.7903179,-0.612697,0.612697,0.7903179,0,0)"/><path style="fill:#fff;fill-opacity:1;stroke:none;display:inline" id="rect3851" d="m 28.532101,30.687523 c 4.002121,-3.10266 10.616036,2.01735 13.044349,5.149639 l 12.435348,16.040363 c 2.428313,3.132289 -0.36375,4.738392 -3.496034,7.166724 -3.132297,2.428312 -5.383547,4.732051 -7.81186,1.599781 L 30.268557,44.603652 C 27.840243,41.471366 24.529973,33.790188 28.532101,30.687523 z"/><path style="fill:#4a4a4a;fill-opacity:1;stroke:none;display:inline" id="path3854" d="m 37.326243,35.934079 c 0,0 -1.179585,1.209904 -2.809273,2.473327 -1.629685,1.263417 -3.095382,2.104281 -3.095382,2.104281 -1.263425,-1.629686 -0.966165,-3.977714 0.66352,-5.241131 1.629688,-1.263421 3.977712,-0.966161 5.241135,0.663523 z"/><rect style="fill:#a0a0a0;fill-opacity:1;stroke:none;display:inline" id="rect3859" width="6.872" height="10.347" x=".311" y="59.73" rx="1.012" ry="1.012" transform="matrix(0.7903179,-0.612697,0.612697,0.7903179,0,0)"/><path style="fill:url(#linearGradient9075);fill-opacity:1;stroke:none;display:inline" id="path3864" d="m 28.532278,30.687757 c -4.002121,3.102665 -0.690025,10.784093 1.738286,13.916379 l 1.223162,1.577749 c -2.224596,-2.8695 -5.119422,-10.012702 -1.117298,-13.115364 4.002129,-3.102663 10.198563,1.48096 12.42315,4.350455 l -1.22316,-1.57775 C 39.148106,32.706941 32.53441,27.585095 28.532278,30.687757 z"/><path style="fill:#fff;fill-opacity:1;stroke:none;display:inline" id="path3878" d="m 860,1217 a 23.5,23.5 0 1 1 -47,0 23.5,23.5 0 1 1 47,0 z" transform="matrix(0.1617239,0,0,0.1617239,-79.588205,-114.86855)"/><path style="fill:#b0b0b0;fill-opacity:1;stroke:none;display:inline" id="path3880" d="m 860,1217 a 23.5,23.5 0 1 1 -47,0 23.5,23.5 0 1 1 47,0 z" transform="matrix(0.1049486,0,0,0.1049486,-34.286481,-55.328437)"/><path style="fill:#fff;fill-opacity:1;stroke:none;display:inline" id="path3882" d="m 860,1217 a 23.5,23.5 0 1 1 -47,0 23.5,23.5 0 1 1 47,0 z" transform="matrix(0.1531217,0,0,0.1531217,-61.886837,-124.52693)"/><path style="opacity:0;fill:none;stroke:#000;stroke-width:.35433072;stroke-linecap:round;stroke-linejoin:round;stroke-miterlimit:4;stroke-opacity:1;stroke-dashoffset:0;marker:none;visibility:visible;display:inline;overflow:visible;enable-background:accumulate" id="path9478" d="M 8.0569187,53.305994 C 5.6612882,80.344499 25.63871,104.20588 52.677739,106.60189 74.58698,108.54332 95.118577,95.692651 102.9471,75.138411"/><text style="font-size:16px;font-style:normal;font-variant:normal;font-weight:400;font-stretch:normal;text-align:start;line-height:100%;writing-mode:lr-tb;text-anchor:start;fill:#fff;fill-opacity:1;stroke:none;font-family:Liberation Sans;-inkscape-font-specification:Liberation Sans" id="text9451" transform="matrix(-0.93686171,-0.34970008,0.34970008,-0.93686171,90.706287,130.67701)" xml:space="preserve"><textPath id="textPath9458" xlink:href="#path9417" style="font-size:4.25px;font-weight:700;letter-spacing:.77704">OPENATRIUM.COM</textPath></text></g><g id="layer1" style="opacity:.3;display:none"><path id="path8621" d="m 60.714287,63.585716 a 16.25,23.214285 0 1 1 -32.5,0 16.25,23.214285 0 1 1 32.5,0 z" transform="matrix(3.5169231,0,0,2.4618462,-99.227476,-99.388252)" style="fill:none;stroke:#000;stroke-width:.12041952;stroke-linecap:round;stroke-linejoin:round;stroke-miterlimit:4;stroke-opacity:1;stroke-dasharray:none;stroke-dashoffset:0;marker:none;visibility:visible;display:inline;overflow:visible;enable-background:accumulate"/><path style="fill:none;stroke:#000;stroke-width:.1662313;stroke-linecap:round;stroke-linejoin:round;stroke-miterlimit:4;stroke-opacity:1;stroke-dasharray:none;stroke-dashoffset:0;marker:none;visibility:visible;display:inline;overflow:visible;enable-background:accumulate" id="path7849" d="m 60.714287,63.585716 a 16.25,23.214285 0 1 1 -32.5,0 16.25,23.214285 0 1 1 32.5,0 z" transform="matrix(2.5476923,0,0,1.7833847,-56.13132,-56.247792)"/></g></svg>