<svg xmlns="http://www.w3.org/2000/svg" xmlns:svg="http://www.w3.org/2000/svg" xmlns:xlink="http://www.w3.org/1999/xlink" id="svg2" width="114.3" height="114.3" version="1.0"><defs id="defs4"><linearGradient id="linearGradient3477"><stop id="stop3479" offset="0" style="stop-color:#15649b;stop-opacity:1"/><stop id="stop3481" offset="1" style="stop-color:#2187ff;stop-opacity:1"/></linearGradient><linearGradient id="linearGradient3483" x1="825.059" x2="825.059" y1="29.939" y2="16.202" gradientTransform="matrix(1.75,0,0,2.75,-1400,0)" gradientUnits="userSpaceOnUse" xlink:href="#linearGradient3477"/><linearGradient id="linearGradient3945"><stop id="stop3947" offset="0" style="stop-color:#fff;stop-opacity:1"/><stop id="stop3949" offset="1" style="stop-color:#e0e0e0;stop-opacity:1"/></linearGradient><linearGradient id="linearGradient15834" x1="440.432" x2="440.432" y1="659.136" y2="675.136" gradientUnits="userSpaceOnUse" xlink:href="#linearGradient3945"/><linearGradient id="linearGradient3318"><stop id="stop3320" offset="0" style="stop-color:#8aff21;stop-opacity:1"/><stop id="stop3322" offset="1" style="stop-color:#16c800;stop-opacity:1"/></linearGradient><linearGradient id="linearGradient12871" x1="437.35" x2="426.094" y1="587.689" y2="597.035" gradientTransform="matrix(1.27651,0,0,1.27651,-482.97945,-701.04379)" gradientUnits="userSpaceOnUse" xlink:href="#linearGradient3318"/><linearGradient id="linearGradient12873" x1="440.432" x2="440.432" y1="659.136" y2="675.136" gradientUnits="userSpaceOnUse" xlink:href="#linearGradient3945"/><linearGradient id="linearGradient12875" x1="440.432" x2="440.432" y1="659.136" y2="675.136" gradientUnits="userSpaceOnUse" xlink:href="#linearGradient3945"/><linearGradient id="linearGradient12877" x1="440.432" x2="440.432" y1="659.136" y2="675.136" gradientUnits="userSpaceOnUse" xlink:href="#linearGradient3945"/><linearGradient id="linearGradient12879" x1="440.432" x2="440.432" y1="659.136" y2="675.136" gradientUnits="userSpaceOnUse" xlink:href="#linearGradient3945"/><linearGradient id="linearGradient12881" x1="409.625" x2="413.353" y1="588.209" y2="597.531" gradientTransform="matrix(1.2126745,0,0,1.2126745,-454.77616,-658.64502)" gradientUnits="userSpaceOnUse" xlink:href="#linearGradient3318"/></defs><metadata id="metadata7"/><g id="layer2"><path id="path8684" d="M 60.714287,63.585716 A 16.25,23.214285 0 1 1 28.214287,63.585716 A 16.25,23.214285 0 1 1 60.714287,63.585716 z" transform="matrix(3.5169231,0,0,2.4618462,-99.227476,-99.388252)" style="opacity:1;fill:url(#linearGradient3483);fill-opacity:1;fill-rule:nonzero;stroke:none;stroke-width:.33985066;stroke-linecap:butt;stroke-linejoin:miter;marker:none;marker-start:none;marker-mid:none;marker-end:none;stroke-miterlimit:0;stroke-dasharray:none;stroke-dashoffset:0;stroke-opacity:1;visibility:visible;display:inline;overflow:visible;enable-background:accumulate"/><g id="g12862" transform="matrix(1.2203982,0,0,1.2203982,-8.6643276,-19.655467)"><path id="path3463" d="M 66.318793,38.773536 C 66.318793,38.773536 59.839667,40.099923 57.782122,44.916751 C 56.836357,47.13084 56.782029,49.066317 56.984304,50.541366 L 40.389653,62.309195 L 40.389653,67.415234 L 67.9942,67.415234 L 67.9942,66.577519 C 72.756227,66.959936 77.089331,63.226681 77.089331,63.226681 C 77.089331,63.226681 74.607071,59.867997 71.30514,58.080757 C 80.391177,54.798193 79.695647,43.689682 79.695647,43.689682 C 79.69566,43.689694 70.472276,42.925321 66.239011,48.307474 C 67.893075,44.351439 66.318793,38.773536 66.318793,38.773536 z" style="fill:url(#linearGradient12871);fill-opacity:1;fill-rule:nonzero;stroke:none;stroke-width:1;stroke-linecap:butt;stroke-linejoin:miter;marker:none;marker-start:none;marker-mid:none;marker-end:none;stroke-miterlimit:0;stroke-dasharray:none;stroke-dashoffset:0;stroke-opacity:1;visibility:visible;display:inline;overflow:visible;enable-background:accumulate"/><g style="fill:url(#linearGradient12879);fill-opacity:1;display:inline;enable-background:new" id="g3465" transform="matrix(1.2126745,0,0,1.2126745,-456.80688,-735.98161)"><path style="font-size:76.80299377px;font-style:italic;font-variant:normal;font-weight:400;font-stretch:normal;text-align:start;line-height:100%;writing-mode:lr-tb;text-anchor:start;fill:url(#linearGradient12873);fill-opacity:1;fill-rule:nonzero;stroke:none;stroke-width:3.11843681;stroke-linecap:butt;stroke-linejoin:miter;marker:none;marker-start:none;marker-mid:none;marker-end:none;stroke-miterlimit:0;stroke-dashoffset:0;stroke-opacity:.22471912;visibility:visible;display:inline;overflow:visible;enable-background:accumulate;font-family:Parisine;-inkscape-font-specification:Parisine Italic" id="path3467" d="M 406.75,661.84375 L 399.90625,675 L 406.78125,675 L 410.5,667.90625 L 430.375,667.90625 L 434.03125,675 L 440.90625,675 L 434.0625,661.84375 L 406.75,661.84375 z"/><path style="opacity:1;fill:url(#linearGradient12875);fill-opacity:1;fill-rule:nonzero;stroke:none;stroke-width:3.11843681;stroke-linecap:butt;stroke-linejoin:miter;marker:none;marker-start:none;marker-mid:none;marker-end:none;stroke-miterlimit:0;stroke-dasharray:none;stroke-dashoffset:0;stroke-opacity:.22471912;visibility:visible;display:inline;overflow:visible;enable-background:accumulate" id="path3469" d="M 414.32413,637.20497 L 406.65738,661.35594 L 433.03923,654.28696 L 414.32413,637.20497 z"/><path style="opacity:1;fill:url(#linearGradient12877);fill-opacity:1;fill-rule:nonzero;stroke:none;stroke-width:3.11843681;stroke-linecap:butt;stroke-linejoin:miter;marker:none;marker-start:none;marker-mid:none;marker-end:none;stroke-miterlimit:0;stroke-dasharray:none;stroke-dashoffset:0;stroke-opacity:.22471912;visibility:visible;display:inline;overflow:visible;enable-background:accumulate" id="path3471" d="m 409.56809,600.77081 c 0,1.45739 -1.18145,2.63883 -2.63883,2.63883 -1.45738,0 -2.63883,-1.18144 -2.63883,-2.63883 0,-1.45738 1.18145,-2.63882 2.63883,-2.63882 1.45738,0 2.63883,1.18144 2.63883,2.63882 z" transform="matrix(1.6050535,0,0,1.6050535,-246.48889,-303.49855)"/></g><path style="fill:#277799;fill-opacity:1;fill-rule:nonzero;stroke:none;stroke-width:3.11843681;stroke-linecap:butt;stroke-linejoin:miter;marker:none;marker-start:none;marker-mid:none;marker-end:none;stroke-miterlimit:0;stroke-dasharray:none;stroke-dashoffset:0;stroke-opacity:.22471912;visibility:visible;display:inline;overflow:visible;enable-background:accumulate" id="path3473" d="m 409.56809,600.77081 c 0,1.45739 -1.18145,2.63883 -2.63883,2.63883 -1.45738,0 -2.63883,-1.18144 -2.63883,-2.63883 0,-1.45738 1.18145,-2.63882 2.63883,-2.63882 1.45738,0 2.63883,1.18144 2.63883,2.63882 z" transform="matrix(0.966041,0,0,0.966041,-356.77785,-515.05096)"/><path id="path3475" d="M 45.718751,48.431227 C 45.718751,48.431227 42.899223,53.204241 45.766446,59.453359 C 43.709859,58.332363 39.931917,58.61545 39.931917,58.61545 C 39.931917,58.61545 39.199886,63.428821 42.379058,65.683778 C 42.379058,65.683778 51.0986,66.041723 51.0986,66.041686 C 51.055999,66.070584 51.417764,65.117495 50.9849,63.464753 C 51.565201,63.649528 51.97021,63.692129 51.97021,63.692129 C 51.934339,63.694737 52.214151,63.449522 52.576547,62.934208 C 53.365295,64.185688 54.206066,64.791128 54.206066,64.791116 C 54.119421,64.749145 55.748588,64.762788 57.98168,60.222522 C 60.214771,55.682281 57.966158,51.083916 57.966158,51.083916 C 57.966158,51.083916 53.917571,51.363195 52.363213,53.798428 C 50.193217,49.189707 45.718751,48.431227 45.718751,48.431227 z" style="fill:url(#linearGradient12881);fill-opacity:1;fill-rule:nonzero;stroke:none;stroke-width:1;stroke-linecap:butt;stroke-linejoin:miter;marker:none;marker-start:none;marker-mid:none;marker-end:none;stroke-miterlimit:0;stroke-dasharray:none;stroke-dashoffset:0;stroke-opacity:1;visibility:visible;display:inline;overflow:visible;enable-background:accumulate"/></g><path style="opacity:1;fill:none;fill-opacity:1;fill-rule:nonzero;stroke:#000;stroke-width:1;stroke-linecap:butt;stroke-linejoin:miter;marker:none;marker-start:none;marker-mid:none;marker-end:none;stroke-miterlimit:0;stroke-dasharray:none;stroke-dashoffset:0;stroke-opacity:0;visibility:visible;display:inline;overflow:visible;enable-background:accumulate" id="path13413" d="M 5,59.300003 C 15,124.3 100,124.3 110,59.300003"/><text style="font-size:4.25px;font-style:normal;font-variant:normal;font-weight:400;font-stretch:normal;text-indent:0;text-align:start;text-decoration:none;line-height:125%;letter-spacing:normal;word-spacing:normal;text-transform:none;direction:ltr;block-progression:tb;writing-mode:lr-tb;text-anchor:start;fill:#fff;fill-opacity:1;fill-rule:nonzero;stroke:none;stroke-width:1px;marker:none;visibility:visible;display:inline;overflow:visible;enable-background:accumulate;font-family:Liberation Sans;-inkscape-font-specification:Liberation Sans" id="text13402" transform="translate(0,-2)" xml:space="preserve"><textPath id="textPath13415" dx="0 0 0 0 0 0 0 0 31.82" xlink:href="#path13413" style="font-size:4.25px;font-style:normal;font-variant:normal;font-weight:700;font-stretch:normal;letter-spacing:1.35982001;font-family:Swis721 BT;-inkscape-font-specification:Swis721 BT Bold">OPENATRIUM.COM</textPath></text></g><g id="layer1" style="display:none"><path id="path8621" d="m 60.714287,63.585716 a 16.25,23.214285 0 1 1 -32.5,0 16.25,23.214285 0 1 1 32.5,0 z" transform="matrix(3.5169231,0,0,2.4618462,-99.227476,-99.388252)" style="fill:none;stroke:#000;stroke-width:.12041952;stroke-linecap:round;stroke-linejoin:round;stroke-miterlimit:4;stroke-opacity:1;stroke-dasharray:none;stroke-dashoffset:0;marker:none;visibility:visible;display:inline;overflow:visible;enable-background:accumulate"/><path style="fill:none;stroke:#000;stroke-width:.1662313;stroke-linecap:round;stroke-linejoin:round;stroke-miterlimit:4;stroke-opacity:1;stroke-dasharray:none;stroke-dashoffset:0;marker:none;visibility:visible;display:inline;overflow:visible;enable-background:accumulate" id="path7849" d="m 60.714287,63.585716 a 16.25,23.214285 0 1 1 -32.5,0 16.25,23.214285 0 1 1 32.5,0 z" transform="matrix(2.5476923,0,0,1.7833847,-56.13132,-56.247792)"/></g></svg>