<svg xmlns="http://www.w3.org/2000/svg" xmlns:svg="http://www.w3.org/2000/svg" xmlns:xlink="http://www.w3.org/1999/xlink" id="svg38602" width="180" height="360" version="1.1"><defs id="defs38604"><linearGradient id="linearGradient16560"><stop style="stop-color:#205880;stop-opacity:1" id="stop16562" offset="0"/><stop style="stop-color:#2187ff;stop-opacity:1" id="stop16564" offset="1"/></linearGradient><linearGradient id="linearGradient38639" x1="104.545" x2="104.545" y1="2510" y2="2880" gradientTransform="matrix(0.72321432,0,0,1.0337838,-4.0178568,-1913.6877)" gradientUnits="userSpaceOnUse" xlink:href="#linearGradient16560"/><linearGradient id="linearGradient36425" x1="437.35" x2="426.094" y1="587.689" y2="597.035" gradientTransform="matrix(0.85100673,0,0,0.85100673,243.11456,-413.69861)" gradientUnits="userSpaceOnUse" xlink:href="#linearGradient3318-9"/><linearGradient id="linearGradient3318-9"><stop id="stop3320-6" offset="0" style="stop-color:#8aff21;stop-opacity:1"/><stop id="stop3322-8" offset="1" style="stop-color:#16c800;stop-opacity:1"/></linearGradient><linearGradient id="linearGradient15834" x1="440.432" x2="440.432" y1="659.136" y2="675.136" gradientUnits="userSpaceOnUse" xlink:href="#linearGradient3945-2"/><linearGradient id="linearGradient3945-2"><stop id="stop3947-4" offset="0" style="stop-color:#fff;stop-opacity:1"/><stop id="stop3949-6" offset="1" style="stop-color:#e0e0e0;stop-opacity:1"/></linearGradient><linearGradient id="linearGradient3772-5" x1="440.432" x2="440.432" y1="659.136" y2="675.136" gradientUnits="userSpaceOnUse" xlink:href="#linearGradient3945-2"/><linearGradient id="linearGradient3774-3" x1="440.432" x2="440.432" y1="659.136" y2="675.136" gradientUnits="userSpaceOnUse" xlink:href="#linearGradient3945-2"/><linearGradient id="linearGradient3776-4" x1="440.432" x2="440.432" y1="659.136" y2="675.136" gradientUnits="userSpaceOnUse" xlink:href="#linearGradient3945-2"/><linearGradient id="linearGradient36417" x1="409.625" x2="413.353" y1="588.209" y2="597.531" gradientTransform="matrix(0.8084497,0,0,0.8084497,261.91675,-385.43276)" gradientUnits="userSpaceOnUse" xlink:href="#linearGradient3318-9"/><linearGradient id="linearGradient36414" x1="300.55" x2="300.55" y1="202.649" y2="220.149" gradientTransform="matrix(0.739154,0,0,0.739154,507.6598,-53.900838)" gradientUnits="userSpaceOnUse" xlink:href="#linearGradient3945-2"/><linearGradient id="linearGradient6195"><stop style="stop-color:#16c800;stop-opacity:1" id="stop6197" offset="0"/><stop style="stop-color:#8aff21;stop-opacity:1" id="stop6199" offset="1"/></linearGradient><linearGradient id="linearGradient3698"><stop style="stop-color:#82fb1e;stop-opacity:1" id="stop3700" offset="0"/><stop style="stop-color:#0e8200;stop-opacity:1" id="stop3702" offset="1"/></linearGradient><linearGradient id="linearGradient3318"><stop id="stop3320" offset="0" style="stop-color:#8aff21;stop-opacity:1"/><stop id="stop3322" offset="1" style="stop-color:#16c800;stop-opacity:1"/></linearGradient><linearGradient id="linearGradient44605"><stop id="stop44607" offset="0" style="stop-color:#8aff21;stop-opacity:1"/><stop id="stop44609" offset="1" style="stop-color:#16c800;stop-opacity:1"/></linearGradient><linearGradient id="linearGradient44612"><stop style="stop-color:#16c800;stop-opacity:1" id="stop44614" offset="0"/><stop style="stop-color:#8aff21;stop-opacity:1" id="stop44616" offset="1"/></linearGradient><linearGradient id="linearGradient44619"><stop id="stop44621" offset="0" style="stop-color:#8aff21;stop-opacity:1"/><stop id="stop44623" offset="1" style="stop-color:#16c800;stop-opacity:1"/></linearGradient><linearGradient id="linearGradient44626"><stop style="stop-color:#16c800;stop-opacity:1" id="stop44628" offset="0"/><stop style="stop-color:#8aff21;stop-opacity:1" id="stop44630" offset="1"/></linearGradient><linearGradient id="linearGradient44633"><stop style="stop-color:#16c800;stop-opacity:1" id="stop44635" offset="0"/><stop style="stop-color:#8aff21;stop-opacity:1" id="stop44637" offset="1"/></linearGradient><linearGradient id="linearGradient3626"><stop style="stop-color:#a9815e;stop-opacity:1" id="stop3628" offset="0"/><stop style="stop-color:#3f2e1f;stop-opacity:1" id="stop3630" offset="1"/></linearGradient><linearGradient id="linearGradient3847"><stop id="stop3849" offset="0" style="stop-color:#d2d2d2;stop-opacity:1"/><stop id="stop3851" offset="1" style="stop-color:#9c9c9c;stop-opacity:1"/></linearGradient><linearGradient id="linearGradient44673"><stop id="stop44675" offset="0" style="stop-color:#d2d2d2;stop-opacity:1"/><stop id="stop44677" offset="1" style="stop-color:#9c9c9c;stop-opacity:1"/></linearGradient><linearGradient id="linearGradient7252" x1="926.394" x2="926.436" y1="1012.055" y2="981.972" gradientUnits="userSpaceOnUse" xlink:href="#linearGradient3847"/><linearGradient id="linearGradient44701"><stop id="stop44703" offset="0" style="stop-color:#d2d2d2;stop-opacity:1"/><stop id="stop44705" offset="1" style="stop-color:#9c9c9c;stop-opacity:1"/></linearGradient><radialGradient id="radialGradient4646" cx="2656.994" cy="963.424" r="23.063" fx="2656.994" fy="963.424" gradientTransform="matrix(-0.31392263,-0.14712309,-0.1383748,0.29525603,1051.4125,1037.9936)" gradientUnits="userSpaceOnUse" xlink:href="#linearGradient4239"/><linearGradient id="linearGradient4239"><stop style="stop-color:#000;stop-opacity:1" id="stop4241" offset="0"/><stop style="stop-color:#000;stop-opacity:0" id="stop4243" offset="1"/></linearGradient><linearGradient id="linearGradient4478" x1="1238.716" x2="1303.302" y1="817.891" y2="811.703" gradientTransform="matrix(0.30753945,0.11887456,-0.11887456,0.30753945,-225.92198,547.99568)" gradientUnits="userSpaceOnUse" xlink:href="#linearGradient4239"/><linearGradient id="linearGradient45566"><stop style="stop-color:#000;stop-opacity:1" id="stop45568" offset="0"/><stop style="stop-color:#000;stop-opacity:0" id="stop45570" offset="1"/></linearGradient><linearGradient id="linearGradient4527" x1="2581.703" x2="2607.71" y1="992.707" y2="1007.805" gradientTransform="matrix(-0.30212869,-0.26508996,-0.26508996,0.30212869,1141.4395,1334.0129)" gradientUnits="userSpaceOnUse" xlink:href="#linearGradient4239"/><linearGradient id="linearGradient45573"><stop style="stop-color:#000;stop-opacity:1" id="stop45575" offset="0"/><stop style="stop-color:#000;stop-opacity:0" id="stop45577" offset="1"/></linearGradient><radialGradient id="radialGradient4260" cx="1800.919" cy="319.154" r="35.938" fx="1800.919" fy="319.154" gradientTransform="matrix(0.32178995,0.03919056,-0.03912244,0.32123029,-532.7961,643.38551)" gradientUnits="userSpaceOnUse" xlink:href="#linearGradient4239"/><linearGradient id="linearGradient45580"><stop style="stop-color:#000;stop-opacity:1" id="stop45582" offset="0"/><stop style="stop-color:#000;stop-opacity:0" id="stop45584" offset="1"/></linearGradient><linearGradient id="linearGradient4245" x1="1864.79" x2="1830.063" y1="405.129" y2="401.278" gradientTransform="matrix(0.32178995,0.03919056,-0.03919056,0.32178995,-532.77414,643.20499)" gradientUnits="userSpaceOnUse" xlink:href="#linearGradient4239"/><linearGradient id="linearGradient45587"><stop style="stop-color:#000;stop-opacity:1" id="stop45589" offset="0"/><stop style="stop-color:#000;stop-opacity:0" id="stop45591" offset="1"/></linearGradient><linearGradient id="linearGradient7539" x1="2342.175" x2="2333.873" y1="1650.715" y2="1718.427" gradientUnits="userSpaceOnUse" xlink:href="#linearGradient4003"/><linearGradient id="linearGradient4003"><stop style="stop-color:#fe4023;stop-opacity:1" id="stop4005" offset="0"/><stop style="stop-color:#a22613;stop-opacity:1" id="stop4007" offset="1"/></linearGradient><linearGradient id="linearGradient7541" x1="2227.537" x2="2287.871" y1="1666.254" y2="1707.489" gradientUnits="userSpaceOnUse" xlink:href="#linearGradient4020-1"/><linearGradient id="linearGradient4020-1"><stop style="stop-color:#000;stop-opacity:1" id="stop4022-1" offset="0"/><stop style="stop-color:#000;stop-opacity:0" id="stop4024-8" offset="1"/></linearGradient><linearGradient id="linearGradient4218" x1="1719.237" x2="1727.762" y1="638.96" y2="730.699" gradientTransform="matrix(0.32416766,0,0,0.32416766,-587.95897,685.5543)" gradientUnits="userSpaceOnUse" xlink:href="#linearGradient4239"/><linearGradient id="linearGradient45602"><stop style="stop-color:#000;stop-opacity:1" id="stop45604" offset="0"/><stop style="stop-color:#000;stop-opacity:0" id="stop45606" offset="1"/></linearGradient><linearGradient id="linearGradient4193" x1="1899.586" x2="1879.5" y1="592.21" y2="773.5" gradientTransform="matrix(0.32416766,0,0,0.32416766,-587.95897,685.5543)" gradientUnits="userSpaceOnUse" xlink:href="#linearGradient4239"/><linearGradient id="linearGradient45609"><stop style="stop-color:#000;stop-opacity:1" id="stop45611" offset="0"/><stop style="stop-color:#000;stop-opacity:0" id="stop45613" offset="1"/></linearGradient><linearGradient id="linearGradient4170" x1="2279.31" x2="2287.986" y1="375.415" y2="366.6" gradientUnits="userSpaceOnUse" xlink:href="#linearGradient4172"/><linearGradient id="linearGradient4172"><stop style="stop-color:#d2d2d2;stop-opacity:1" id="stop4174" offset="0"/><stop style="stop-color:#bcbcbc;stop-opacity:1" id="stop4176" offset="1"/></linearGradient><linearGradient id="linearGradient4154" x1="1584.01" x2="1595.313" y1="149.231" y2="343.017" gradientTransform="matrix(0.32416766,0,0,0.32416766,-587.95897,754.4544)" gradientUnits="userSpaceOnUse" xlink:href="#linearGradient4239"/><linearGradient id="linearGradient45620"><stop style="stop-color:#000;stop-opacity:1" id="stop45622" offset="0"/><stop style="stop-color:#000;stop-opacity:0" id="stop45624" offset="1"/></linearGradient><linearGradient id="linearGradient4107" x1="1595.741" x2="1618.197" y1="495.42" y2="600.559" gradientTransform="matrix(0.32416766,0,0,0.32416766,-587.95897,685.5543)" gradientUnits="userSpaceOnUse" xlink:href="#linearGradient3318-0"/><linearGradient id="linearGradient3318-0"><stop id="stop3320-5" offset="0" style="stop-color:#8aff21;stop-opacity:1"/><stop id="stop3322-5" offset="1" style="stop-color:#16c800;stop-opacity:1"/></linearGradient><linearGradient id="linearGradient4099" x1="1670.429" x2="1872.29" y1="677.945" y2="523.329" gradientTransform="matrix(0.32416766,0,0,0.32416766,-587.95897,685.5543)" gradientUnits="userSpaceOnUse" xlink:href="#linearGradient6195-0"/><linearGradient id="linearGradient6195-0"><stop style="stop-color:#16c800;stop-opacity:1" id="stop6197-7" offset="0"/><stop style="stop-color:#8aff21;stop-opacity:1" id="stop6199-7" offset="1"/></linearGradient><linearGradient id="linearGradient4304" x1="2400.316" x2="2395.538" y1="786.408" y2="851.99" gradientTransform="matrix(0.32416766,0,0,0.32416766,-607.95897,715.5543)" gradientUnits="userSpaceOnUse" xlink:href="#linearGradient4020-1"/><linearGradient id="linearGradient3896" x1="2149.057" x2="2149.057" y1="1058.316" y2="909.884" gradientTransform="matrix(0.32416766,0,0,0.32416766,-607.95897,715.5543)" gradientUnits="userSpaceOnUse" xlink:href="#linearGradient6195-0"/><linearGradient id="linearGradient45642"><stop style="stop-color:#16c800;stop-opacity:1" id="stop45644" offset="0"/><stop style="stop-color:#8aff21;stop-opacity:1" id="stop45646" offset="1"/></linearGradient><linearGradient id="linearGradient4091" x1="1825.664" x2="2060" y1="670.335" y2="622.919" gradientTransform="matrix(0.32416766,0,0,0.32416766,-587.95897,685.5543)" gradientUnits="userSpaceOnUse" xlink:href="#linearGradient10001"/><linearGradient id="linearGradient10001"><stop style="stop-color:#007319;stop-opacity:1" id="stop3676" offset="0"/><stop style="stop-color:#33a00f;stop-opacity:1" id="stop3678" offset="1"/></linearGradient><linearGradient id="linearGradient4123" x1="1670.525" x2="1686.845" y1="406.385" y2="487.719" gradientTransform="matrix(0.32416766,0,0,0.32416766,-587.95897,685.5543)" gradientUnits="userSpaceOnUse" xlink:href="#linearGradient3318-0"/><linearGradient id="linearGradient45653"><stop id="stop45655" offset="0" style="stop-color:#8aff21;stop-opacity:1"/><stop id="stop45657" offset="1" style="stop-color:#16c800;stop-opacity:1"/></linearGradient><linearGradient id="linearGradient3910" x1="2398.773" x2="2400.096" y1="815.664" y2="576.524" gradientTransform="matrix(0.32416766,0,0,0.32416766,-607.95897,754.4544)" gradientUnits="userSpaceOnUse" xlink:href="#linearGradient6195-0"/><linearGradient id="linearGradient45660"><stop style="stop-color:#16c800;stop-opacity:1" id="stop45662" offset="0"/><stop style="stop-color:#8aff21;stop-opacity:1" id="stop45664" offset="1"/></linearGradient><linearGradient id="linearGradient4325" x1="2361.394" x2="2354.966" y1="556.725" y2="594.854" gradientTransform="matrix(0.32416766,0,0,0.32416766,-602.94809,716.2224)" gradientUnits="userSpaceOnUse" xlink:href="#linearGradient4003"/><linearGradient id="linearGradient45667"><stop style="stop-color:#fe4023;stop-opacity:1" id="stop45669" offset="0"/><stop style="stop-color:#a22613;stop-opacity:1" id="stop45671" offset="1"/></linearGradient><linearGradient id="linearGradient3948" x1="2330.162" x2="2365.886" y1="371.551" y2="408.204" gradientTransform="matrix(0.32416766,0,0,0.32416766,-602.94809,755.1225)" gradientUnits="userSpaceOnUse" xlink:href="#linearGradient3847-3"/><linearGradient id="linearGradient3847-3"><stop id="stop3849-9" offset="0" style="stop-color:#d2d2d2;stop-opacity:1"/><stop id="stop3851-9" offset="1" style="stop-color:#9c9c9c;stop-opacity:1"/></linearGradient><linearGradient id="linearGradient3918" x1="2128.955" x2="2305.246" y1="580.849" y2="580.849" gradientTransform="matrix(0.32416766,0,0,0.32416766,-608.43151,724.5327)" gradientUnits="userSpaceOnUse" xlink:href="#linearGradient4124-0"/><linearGradient id="linearGradient4124-0"><stop id="stop4126-6" offset="0" style="stop-color:#666;stop-opacity:1"/><stop id="stop4128-0" offset="1" style="stop-color:#1a1a1a;stop-opacity:1"/></linearGradient><linearGradient id="linearGradient3927" x1="2175.119" x2="2165.544" y1="521.675" y2="415.34" gradientTransform="matrix(0.32416766,0,0,0.32416766,-608.43151,724.5327)" gradientUnits="userSpaceOnUse" xlink:href="#linearGradient6195-0"/><linearGradient id="linearGradient45682"><stop style="stop-color:#16c800;stop-opacity:1" id="stop45684" offset="0"/><stop style="stop-color:#8aff21;stop-opacity:1" id="stop45686" offset="1"/></linearGradient><linearGradient id="linearGradient4053" x1="2524.798" x2="2403.848" y1="924.752" y2="1132.193" gradientTransform="matrix(0.32416766,0,0,0.32416766,-607.95897,715.5543)" gradientUnits="userSpaceOnUse" xlink:href="#linearGradient3698-7"/><linearGradient id="linearGradient3698-7"><stop style="stop-color:#82fb1e;stop-opacity:1" id="stop3700-8" offset="0"/><stop style="stop-color:#0e8200;stop-opacity:1" id="stop3702-2" offset="1"/></linearGradient><linearGradient id="linearGradient4067" x1="2471.211" x2="2654.75" y1="1078.451" y2="1060.958" gradientTransform="matrix(-0.2008843,-0.25442125,-0.25442125,0.2008843,868.25819,1415.5451)" gradientUnits="userSpaceOnUse" xlink:href="#linearGradient10001"/><linearGradient id="linearGradient45693"><stop style="stop-color:#007319;stop-opacity:1" id="stop45695" offset="0"/><stop style="stop-color:#33a00f;stop-opacity:1" id="stop45697" offset="1"/></linearGradient><linearGradient id="linearGradient4045" x1="2439.414" x2="2473.662" y1="1153.425" y2="1119.455" gradientTransform="matrix(0.32416766,0,0,0.32416766,-607.95897,715.5543)" gradientUnits="userSpaceOnUse" xlink:href="#linearGradient4124-0"/><linearGradient id="linearGradient7555" x1="1332.642" x2="1365.843" y1="1716.259" y2="1866.008" gradientTransform="matrix(0.12762991,0.22106151,-0.22106151,0.12762991,244.80762,429.18481)" gradientUnits="userSpaceOnUse" xlink:href="#linearGradient3698-7"/><linearGradient id="linearGradient45707"><stop style="stop-color:#82fb1e;stop-opacity:1" id="stop45709" offset="0"/><stop style="stop-color:#0e8200;stop-opacity:1" id="stop45711" offset="1"/></linearGradient><linearGradient id="linearGradient7551" x1="2525.873" x2="2347.621" y1="1319.772" y2="1356.591" gradientTransform="matrix(0.32416766,0,0,0.32416766,-800.95897,540.0543)" gradientUnits="userSpaceOnUse" xlink:href="#linearGradient4124-0"/><linearGradient id="linearGradient9137" x1="1829.743" x2="1860.063" y1="1193.222" y2="1226.656" gradientTransform="matrix(0.32416766,0,0,0.32416766,-588.45728,716.0599)" gradientUnits="userSpaceOnUse" xlink:href="#linearGradient3811-6"/><linearGradient id="linearGradient3811-6"><stop style="stop-color:#fff;stop-opacity:1" id="stop3813-1" offset="0"/><stop style="stop-color:#cdcdcd;stop-opacity:1" id="stop3815-0" offset="1"/></linearGradient><linearGradient id="linearGradient9133" x1="1850.972" x2="1941.715" y1="1073.288" y2="1073.288" gradientTransform="matrix(0.32416766,0,0,0.32416766,-588.45728,716.0599)" gradientUnits="userSpaceOnUse" xlink:href="#linearGradient3811-6"/><linearGradient id="linearGradient9131" x1="1631.396" x2="1839.371" y1="1217.299" y2="1217.299" gradientTransform="matrix(0.32416766,0,0,0.32416766,-588.45728,716.0599)" gradientUnits="userSpaceOnUse" xlink:href="#linearGradient3811-6"/><linearGradient id="linearGradient9129" x1="1838.885" x2="1807.967" y1="1171.724" y2="1214.924" gradientTransform="matrix(0.32416766,0,0,0.32416766,-588.45728,716.0599)" gradientUnits="userSpaceOnUse" xlink:href="#linearGradient3847-3"/><linearGradient id="linearGradient45739"><stop id="stop45741" offset="0" style="stop-color:#d2d2d2;stop-opacity:1"/><stop id="stop45743" offset="1" style="stop-color:#9c9c9c;stop-opacity:1"/></linearGradient><linearGradient id="linearGradient9043" x1="1802.817" x2="1818.753" y1="982.206" y2="1105.783" gradientTransform="matrix(0.32416766,0,0,0.32416766,-588.45728,686.0599)" gradientUnits="userSpaceOnUse" xlink:href="#linearGradient3698-7"/><linearGradient id="linearGradient45746"><stop style="stop-color:#82fb1e;stop-opacity:1" id="stop45748" offset="0"/><stop style="stop-color:#0e8200;stop-opacity:1" id="stop45750" offset="1"/></linearGradient><linearGradient id="linearGradient9041" x1="1904.521" x2="1904.521" y1="991.873" y2="1082.124" gradientTransform="matrix(0.32382774,-0.01484133,0.01484133,0.32382774,-598.15385,747.17695)" gradientUnits="userSpaceOnUse" xlink:href="#linearGradient3318-0"/><linearGradient id="linearGradient45753"><stop id="stop45755" offset="0" style="stop-color:#8aff21;stop-opacity:1"/><stop id="stop45757" offset="1" style="stop-color:#16c800;stop-opacity:1"/></linearGradient><linearGradient id="linearGradient3821" x1="1577.985" x2="1594.435" y1="1088.013" y2="1698.231" gradientTransform="matrix(0.8517455,0,0,0.8517455,16.465911,244.61908)" gradientUnits="userSpaceOnUse" xlink:href="#linearGradient4124"/><linearGradient id="linearGradient4124"><stop id="stop4126" offset="0" style="stop-color:#666;stop-opacity:1"/><stop id="stop4128" offset="1" style="stop-color:#1a1a1a;stop-opacity:1"/></linearGradient><linearGradient id="linearGradient46436" x1="1577.985" x2="1594.435" y1="1088.013" y2="1698.231" gradientTransform="matrix(0.32238364,0,0,0.32238364,-584.51694,686.45922)" gradientUnits="userSpaceOnUse" xlink:href="#linearGradient4124"/><linearGradient id="linearGradient3813" x1="2215.212" x2="1975.117" y1="1318.721" y2="1951.617" gradientTransform="matrix(0.8517455,0,0,0.8517455,16.465911,244.61908)" gradientUnits="userSpaceOnUse" xlink:href="#linearGradient4124-7"/><linearGradient id="linearGradient4124-7"><stop id="stop4126-0" offset="0" style="stop-color:#666;stop-opacity:1"/><stop id="stop4128-6" offset="1" style="stop-color:#1a1a1a;stop-opacity:1"/></linearGradient><linearGradient id="linearGradient46474" x1="2215.212" x2="1975.117" y1="1318.721" y2="1951.617" gradientTransform="matrix(0.3265988,0,0,0.3265988,-613.67844,712.57837)" gradientUnits="userSpaceOnUse" xlink:href="#linearGradient4124-7"/><linearGradient id="linearGradient36425-5" x1="437.35" x2="426.094" y1="587.689" y2="597.035" gradientTransform="matrix(0.85100673,0,0,0.85100673,243.11456,-413.69861)" gradientUnits="userSpaceOnUse" xlink:href="#linearGradient3318-9-0"/><linearGradient id="linearGradient3318-9-0"><stop id="stop3320-6-1" offset="0" style="stop-color:#8aff21;stop-opacity:1"/><stop id="stop3322-8-2" offset="1" style="stop-color:#16c800;stop-opacity:1"/></linearGradient><linearGradient id="linearGradient15834-6" x1="440.432" x2="440.432" y1="659.136" y2="675.136" gradientUnits="userSpaceOnUse" xlink:href="#linearGradient3945-2-4"/><linearGradient id="linearGradient3945-2-4"><stop id="stop3947-4-8" offset="0" style="stop-color:#fff;stop-opacity:1"/><stop id="stop3949-6-5" offset="1" style="stop-color:#e0e0e0;stop-opacity:1"/></linearGradient><linearGradient id="linearGradient3772-5-6" x1="440.432" x2="440.432" y1="659.136" y2="675.136" gradientUnits="userSpaceOnUse" xlink:href="#linearGradient3945-2-4"/><linearGradient id="linearGradient3774-3-2" x1="440.432" x2="440.432" y1="659.136" y2="675.136" gradientUnits="userSpaceOnUse" xlink:href="#linearGradient3945-2-4"/><linearGradient id="linearGradient3776-4-5" x1="440.432" x2="440.432" y1="659.136" y2="675.136" gradientUnits="userSpaceOnUse" xlink:href="#linearGradient3945-2-4"/><linearGradient id="linearGradient36417-2" x1="409.625" x2="413.353" y1="588.209" y2="597.531" gradientTransform="matrix(0.8084497,0,0,0.8084497,261.91675,-385.43276)" gradientUnits="userSpaceOnUse" xlink:href="#linearGradient3318-9-0"/><linearGradient id="linearGradient36414-6" x1="300.55" x2="300.55" y1="202.649" y2="220.149" gradientTransform="matrix(0.739154,0,0,0.739154,507.6598,-53.900838)" gradientUnits="userSpaceOnUse" xlink:href="#linearGradient3945-2-4"/></defs><metadata id="metadata38607"/><g id="layer1" transform="translate(0,-692.36)"><rect style="color:#000;fill:url(#linearGradient38639);fill-opacity:1;fill-rule:nonzero;stroke:none;stroke-width:1;marker:none;visibility:visible;display:inline;overflow:visible;enable-background:accumulate" id="rect11730" width="202.5" height="382.5" x="-11.25" y="681.11"/><path style="fill:#14500c;fill-opacity:1;stroke:none;display:inline" id="path4199" d="m 59.6198,1033.308 c 0.79593,-22.2865 -21.09257,-17.9088 -21.09257,-17.9088 0,0 -5.96959,-16.3169 -19.89862,-1.9899 -15.91891,-9.5513 -30.64391,9.9493 -30.64391,9.9493 l 28.65406,19.1027 42.98104,-9.1533 z"/><path style="fill:none;stroke:#d5e4e9;stroke-width:1.62083817;stroke-linecap:butt;stroke-linejoin:miter;stroke-miterlimit:4;stroke-opacity:1;stroke-dasharray:none;display:inline" id="path4164" d="m 103.702,984.5355 c -15.83043,-15.8304 -35.677544,-10.3961 -36.386359,20.556 17.484399,8.0333 35.677549,-20.0834 36.386359,-20.556 z"/><path style="fill:url(#linearGradient9041);fill-opacity:1;stroke:none;display:inline" id="path4034" d="m 42.721857,1032.4561 c -9.310021,0.4897 -16.735205,9.0114 -16.735205,9.0114 0,0 -5.598117,-5.2234 -14.948474,-2.8946 0.522422,2.5672 0.0065,5.7345 -2.008891,9.4927 15.079825,1.2166 14.185753,16.3671 7.131932,22.632 5.947396,7.9822 17.398485,1.439 16.389213,-5.497 0,0 11.261222,14.3345 20.085111,6.3301 8.823853,-8.0043 -0.405501,-16.5921 -0.405501,-16.5921 0,0 10.022343,-10.203 3.832373,-16.614 -4.48903,-4.6493 -9.10873,-6.0913 -13.340558,-5.8685 z"/><path style="fill:#1fcc02;fill-opacity:1;stroke:none;display:inline" id="path4024" d="m 1897.9106,947.89508 a 20.411781,20.411781 0 1 1 -40.8236,0 20.411781,20.411781 0 1 1 40.8236,0 z" transform="matrix(0.32416766,0,0,0.32416766,-594.69956,685.8102)"/><path style="fill:url(#linearGradient9043);fill-opacity:1;stroke:none;display:inline" id="path4022" d="m -15.164318,998.7052 c 10.736733,-5.9926 28.714537,0.2496 19.475966,15.7306 15.730559,1.9975 13.233647,18.4772 4.993826,23.7208 -8.239858,5.2435 -20.474716,-3.7455 -20.474716,-3.7455 l -8.239858,-18.2275 4.244782,-17.4784 z"/><path style="fill:#329f0f;fill-opacity:1;stroke:none;display:inline" id="path3932" d="m 1403.5,1157.5 a 15.5,15.5 0 1 1 -31,0 15.5,15.5 0 1 1 31,0 z" transform="matrix(0.22482595,0,0,0.22482595,-442.93569,788.0493)"/><path style="fill:#5cd414;fill-opacity:1;stroke:none;display:inline" id="path3998" d="m 1852.8209,1366.8605 a 13.234434,13.234434 0 1 1 -26.4689,0 13.234434,13.234434 0 1 1 26.4689,0 z" transform="matrix(0.32416766,0,0,0.32416766,-611.416,673.2491)"/><path style="fill:#7ca7c5;fill-opacity:1;stroke:none;display:inline" id="path4014" d="m 26.925192,1111.2399 -19.66611,-11.2976 -32.219068,5.4396 -3.765883,23.432 35.984951,9.2055 19.66611,-26.7795 z"/><path style="fill:#3a6583;fill-opacity:1;stroke:none;display:inline" id="path4016" d="m 3.067963,1119.4534 18.240183,-114.0707 11.475082,-2.9344 -17.155572,108.3731 -12.559693,8.632 z"/><path style="fill:#1fcc02;fill-opacity:1;stroke:none;display:inline" id="path7335" d="m 1897.9106,947.89508 a 20.411781,20.411781 0 1 1 -40.8236,0 20.411781,20.411781 0 1 1 40.8236,0 z" transform="matrix(0.42733291,0,0,0.42733291,-799.73512,582.11961)"/><path style="fill:#4f88b0;fill-opacity:1;stroke:none;display:inline" id="path4018" d="m 21.308146,1005.3827 -59.239436,-15.0689 9.205421,119.2524 31.793832,9.8872 18.240183,-114.0707 z"/><path style="fill:#1fcc02;fill-opacity:1;stroke:none;display:inline" id="path7342" d="m 1897.9106,947.89508 a 20.411781,20.411781 0 1 1 -40.8236,0 20.411781,20.411781 0 1 1 40.8236,0 z" transform="matrix(0.32416766,0,0,0.32416766,-594.34651,664.29975)"/><path style="fill:#7ca7c5;fill-opacity:1;stroke:none;display:inline" id="path4020" d="m 32.783228,1002.4483 -64.940894,-23.1196 -18.364838,7.9943 71.83065,18.0597 11.475082,-2.9344 z"/><path style="fill:#fff;fill-opacity:1;fill-rule:nonzero;stroke:none;stroke-width:1;marker:none;visibility:visible;display:inline;overflow:visible;enable-background:accumulate" id="path4163" d="m 16.0869,1066.4203 5.0769,-4.6659 -2.77166,11.866 -4.43062,2.8421"/><path id="path4161" d="m 20.21887,1046.6002 5.07691,-4.6659 -2.65372,12.3698 -4.54857,3.799" style="fill:#fff;fill-opacity:1;fill-rule:nonzero;stroke:none;stroke-width:1;marker:none;visibility:visible;display:inline;overflow:visible;enable-background:accumulate"/><path style="fill:#fff;fill-opacity:1;fill-rule:nonzero;stroke:none;stroke-width:1;marker:none;visibility:visible;display:inline;overflow:visible;enable-background:accumulate" id="path4165" d="m -50.137917,1084.2679 5.076909,-4.6659 -2.653679,12.3698 -4.548571,3.799"/><path id="path4167" d="m -54.917965,1106.3092 5.076948,-4.6659 -2.653717,12.3698 -4.548609,3.799" style="fill:#fff;fill-opacity:1;fill-rule:nonzero;stroke:none;stroke-width:1;marker:none;visibility:visible;display:inline;overflow:visible;enable-background:accumulate"/><path style="fill:#fff;fill-opacity:1;fill-rule:nonzero;stroke:none;stroke-width:1;marker:none;visibility:visible;display:inline;overflow:visible;enable-background:accumulate" id="path4181" d="m 64.26801,1037.907 9.71381,5.5114 -3.14125,11.2764 -10.13783,-5.1874"/><path style="fill:#fff;fill-opacity:1;fill-rule:nonzero;stroke:none;stroke-width:1;marker:none;visibility:visible;display:inline;overflow:visible;enable-background:accumulate" id="path4185" d="m 71.98566,1083.1766 10.03248,4.5554 -3.45992,12.2324 -10.350318,-5.7185"/><path style="fill:#fff;fill-opacity:1;fill-rule:nonzero;stroke:none;stroke-width:1;marker:none;visibility:visible;display:inline;overflow:visible;enable-background:accumulate" id="path4187" d="m 4.771151,1007.3436 10.643297,2.723 -1.680694,11.9403 -11.067316,-3.7268"/><path id="path4189" d="m -22.581361,1000.9702 10.643336,2.7231 -1.680733,11.9402 -10.403373,-3.0629" style="fill:#fff;fill-opacity:1;fill-rule:nonzero;stroke:none;stroke-width:1;marker:none;visibility:visible;display:inline;overflow:visible;enable-background:accumulate"/><path style="fill:url(#linearGradient7551);fill-opacity:1;stroke:none;display:inline" id="path7543" d="m -35.83812,967.831 c 34.01447,15.5728 59.8327,-18.0318 59.8327,-18.0318 l 13.11399,7.3766 c 0,0 -24.17894,34.8341 -64.34063,27.8673 -9.01588,-16.8023 -6.96681,-16.3925 -8.60606,-17.2121 z"/><path style="fill:#50e310;fill-opacity:1;stroke:none;display:inline" id="path7327" d="m 2768.0629,599.9281 a 24.719398,24.719398 0 1 1 -49.4388,0 24.719398,24.719398 0 1 1 49.4388,0 z" transform="matrix(0.19717414,0,0,0.19717414,-515.32917,819.3566)"/><path style="fill:url(#linearGradient7555);fill-opacity:1;stroke:none;display:inline" id="path7553" d="m 2.23761,949.6764 c -4.52722,3.6625 -1.96465,12.994 3.98621,14.2191 5.95079,1.2252 13.09515,-7.7935 13.09515,-7.7935 0,0 1.85428,6.0372 6.80327,7.1417 -3.71537,8.9033 -5.94523,9.6337 -5.94523,9.6337 l -0.61705,4.784 c 0,0 4.30084,8.8373 8.80074,8.785 11.38004,-0.129 17.31713,-9.8332 11.1182,-18.8869 0,0 6.21929,-0.3282 8.72926,-4.4572 2.50997,-4.1292 -0.76598,-8.9961 -0.76598,-8.9961 0,0 10.08787,-2.9112 9.77597,-11.1206 -0.31193,-8.2096 -11.3235,-13.1546 -17.35976,-8.2713 -0.87323,-7.7689 -6.21329,-12.3763 -12.36856,-11.7355 -6.15528,0.6407 -11.09149,8.0349 -11.09149,8.0349 0,0 -10.00523,-5.2848 -17.41981,3.5322 -7.04713,8.3799 3.1717,15.1809 3.25908,15.1305 z"/><path style="fill:#14500c;fill-opacity:1;stroke:none;display:inline" id="path4206" d="m 2506.1969,948.66144 a 65.1073,65.1073 0 1 1 -130.2146,0 65.1073,65.1073 0 1 1 130.2146,0 z" transform="matrix(0.32416766,0,0,0.32416766,-601.76795,712.4588)"/><path id="path4052" d="m 172.45906,1107.2847 c 10.28093,-4.2058 25.70238,-27.1044 25.70238,-27.1044 l -7.47708,-12.6175 c 0,0 -7.94437,14.9541 -12.15021,19.6273" style="fill:url(#linearGradient4045);fill-opacity:1;stroke:none;display:inline"/><path style="fill:url(#linearGradient4067);fill-opacity:1;stroke:none;display:inline" id="path3699" d="m 98.33567,980.5685 c -0.92753,-14.7487 -17.45376,-38.31865 -56.351241,-15.94221 -4.952147,-7.40297 -14.565665,-4.87352 -18.802654,1.44901 -4.236988,6.32253 4.817569,17.0361 13.17645,16.68806 -0.153649,12.6253 16.352761,27.87494 32.10477,18.41474 2.491281,15.598 22.297875,16.9288 31.042375,7.6427 8.7444,-9.28607 -0.84147,-28.21372 -1.1697,-28.2523 z"/><path style="fill:#14500c;fill-opacity:1;stroke:none;display:inline" id="path4202" d="m 225.29324,1008.165 c 7.31662,-4.784 17.16593,-1.1257 14.63328,10.4121 11.53777,4.7839 12.66337,30.6736 -8.16089,29.2665 -0.84423,15.4775 -28.14091,19.6987 -32.92484,4.5026 -8.44229,-14.3519 -12.10058,-15.4775 -11.25635,-16.6032 0.84423,-1.1256 27.85946,-31.5178 27.85946,-31.5178 l 9.84934,3.9398 z"/><path style="fill:url(#linearGradient4053);fill-opacity:1;stroke:none;display:inline" id="path3697" d="m 181.80537,1027.3736 c 17.29069,-7.9444 30.37556,4.4395 32.24484,10.7483 1.86924,6.3088 -0.70102,12.6175 -0.70102,12.6175 0,0 8.87903,12.6175 0,21.4966 -8.87902,8.879 -19.3936,-1.6357 -19.3936,-1.6357 0,0 -16.58975,14.9542 -22.66484,-8.6453 2.57022,-23.3658 10.98195,-34.5814 10.51462,-34.5814 z"/><path style="fill:#2b9910;fill-opacity:1;stroke:none;display:inline" id="path3740" d="m 130.40058,969.66 c 0.23364,-10.2809 8.88428,-17.9608 21.96911,-10.9511 7.71076,23.5995 7.47182,28.0082 6.53717,28.0082 -0.93462,0 -28.97357,-17.758 -28.50628,-17.0571 z"/><path style="fill:url(#linearGradient4091);fill-opacity:1;stroke:none;display:inline" id="path3795" d="m 41.71149,851.809 c 14.670192,-6.189 25.44358,7.5642 26.36042,18.1084 7.79354,-1.1461 16.50396,8.9396 7.33508,18.3377 6.41819,6.189 0.91692,14.4409 -1.37531,15.8163 -2.29223,1.3753 -13.29481,1.1461 -15.587037,-3.6675 0.458424,12.6071 -6.418192,21.0883 -26.36046,13.524 -0.687615,9.1688 -18.337655,10.7734 -18.337655,10.7734 L 4.348452,888.2551 41.71149,851.809 z"/><path style="fill:url(#linearGradient3927);fill-opacity:1;stroke:none;display:inline" id="path3707" d="m 86.48892,896.7877 c -7.765333,5.4524 -11.069786,4.2958 -16.852504,-2.313 -5.782755,-6.6089 4.460959,-14.0439 4.460959,-14.0439 0,0 -8.261095,-10.4089 0.330392,-17.0177 8.591523,-6.6089 18.670063,2.4783 18.670063,2.4783 0,0 5.6175,-11.0698 17.01776,-4.7914 7.43494,4.2957 6.93926,16.3569 2.31305,18.5047 6.44369,3.6349 7.60019,9.7481 6.44369,13.3829 -1.15658,3.6349 -4.13057,5.2872 -12.88727,3.9654 -6.44365,5.4523 -11.89598,7.1045 -19.49614,-0.1653 z"/><path style="fill:url(#linearGradient3918);fill-opacity:1;stroke:none;display:inline" id="path3705" d="m 82.19318,889.0224 c 1.98265,21.6439 14.04385,43.2879 30.73118,47.7489 16.68733,4.461 25.44403,-1.8174 25.44403,-1.8174 l -4.62617,-14.2091 c -0.86494,1.996 -25.2419,4.9603 -33.04427,-13.0524 9.48603,0.615 11.9394,-12.5867 11.35523,-16.5588 -2.10288,0.8177 -3.73852,1.0514 -5.95821,0.3504 -1.86931,5.0237 -4.67317,6.8929 -8.64538,7.9444 -4.90682,-4.4395 -3.73851,-12.1502 -3.73851,-12.1502 0,0 -4.20585,2.9207 -11.5179,1.7442 z"/><path style="fill:url(#linearGradient3948);fill-opacity:1;stroke:none;display:inline" id="path3728" d="m 169.05824,886.5578 c 7.12659,-5.7246 1.86928,-11.6829 1.86928,-11.6829 7.5205,-3.0986 4.63138,-15.557 -6.89291,-8.6454 -4.90682,-3.388 -8.61695,-1.9137 -10.51462,1.0515 -1.16301,1.8172 -1.1683,7.2434 4.32269,8.178 -4.08904,3.0376 -5.25735,6.4256 -3.03758,10.8651 10.51462,1.2851 14.1363,0.2337 14.25314,0.2337 z"/><rect style="fill:url(#linearGradient4325);fill-opacity:1;stroke:none;display:inline" id="rect3724" width="16.122" height="22.782" x="153.52" y="888.31" rx="1.064" ry="1.064"/><rect id="rect3726" width="25.001" height="9.463" x="149.081" y="884.805" rx="1.064" ry="1.064" style="fill:#7d281a;fill-opacity:1;stroke:none;display:inline"/><path style="fill:#aeaeae;fill-opacity:1;stroke:none;display:inline" id="path3730" d="m 2305.275,375.41479 a 12.23228,12.23228 0 1 1 -24.4646,0 12.23228,12.23228 0 1 1 24.4646,0 z" transform="matrix(0.32416766,0,0,0.32416766,-599.23062,753.2225)"/><path style="fill:url(#linearGradient3910);fill-opacity:1;stroke:none;display:inline" id="path3701" d="m 199.09606,1005.2889 c -0.4673,20.562 13.5522,32.2449 32.9458,18.459 9.58,10.0474 19.6273,3.5049 21.2629,1.402 1.63563,-2.1029 5.37415,-10.5146 4.43949,-15.1878 8.87902,0.701 14.95411,-6.3088 13.08487,-14.0195 -1.86928,-7.7107 -7.24343,-9.1127 -7.24343,-9.1127 0,0 8.64538,-8.4116 6.30881,-16.1224 -2.33661,-7.7107 -17.29072,-5.6078 -17.29072,-5.6078 0,0 12.85119,-17.2906 0.46733,-36.6843 -12.38391,-19.3936 -44.86238,-9.58 -44.86238,-9.58 0,0 0.70097,-16.8233 -17.52437,-21.0292 -18.2253,-4.2058 -26.40331,10.982 -26.40331,10.982 0,0 -22.43119,-14.7205 -36.21704,5.6078 -13.78581,20.3282 3.27123,38.7872 3.27123,38.7872 0,0 -15.88877,25.936 19.15996,33.1794 35.04869,7.2435 30.84284,26.1698 30.84284,26.1698 0,0 13.55221,2.3365 17.75802,-7.2435 z"/><path style="fill:url(#linearGradient4123);fill-opacity:1;stroke:none;display:inline" id="path3797" d="m -58.22893,820.6349 c 17.420807,-8.7104 22.234461,5.2721 22.234461,5.2721 0,0 12.607153,-6.8767 11.919499,8.9396 -12.377961,11.0026 -32.549383,16.7331 -32.549383,16.7331 l -1.604577,-30.9448 z"/><path style="fill:#172d3d;fill-opacity:1;stroke:none;display:inline" id="path3758" d="m 115.58321,1016.3818 c 2.10708,1.4588 29.82339,15.2359 29.82339,15.2359 10.09898,-16.6658 9.59629,-34.1472 5.99711,-51.8668 l -20.58463,1.6208 -15.23587,35.0101 z"/><rect style="fill:#8ba9b3;fill-opacity:1;stroke:none;display:inline" id="rect3748" width="44.641" height="51.702" x="649.286" y="707.393" rx="1.064" ry="1.064" transform="matrix(0.81082108,0.58529409,-0.5853057,0.8108127,0,0)"/><path style="fill:#1fcc02;fill-opacity:1;stroke:none;display:inline" id="path7348" d="m 1897.9106,947.89508 a 20.411781,20.411781 0 1 1 -40.8236,0 20.411781,20.411781 0 1 1 40.8236,0 z" transform="matrix(0.71883248,0,0,0.71883252,-1287.7335,375.88372)"/><path style="fill:url(#linearGradient3896);fill-opacity:1;stroke:none;display:inline" id="path3738" d="m 74.900348,1058.6481 c -14.539495,0.9913 -24.287526,-6.2785 -22.800553,-22.8006 -7.930589,0.3304 -17.017759,-3.6349 -14.043774,-19.6613 -13.878598,-4.9566 -12.556839,-23.6267 -6.774084,-28.0876 5.782755,-4.461 26.10493,-13.0525 32.383369,10.5741 3.634845,-9.0871 9.913246,-8.4263 16.191684,-4.2957 5.12182,-8.2611 27.42673,-11.0698 25.60925,16.0264 7.60019,-2.4783 22.47012,-2.9739 24.78321,13.2177 6.93929,-4.6262 19.99174,-4.7914 19.99174,-4.7914 30.17761,24.7785 1.84736,40.1824 -13.75612,56.7437 0,0 -36.47112,6.7013 -42.58434,-12.4644 -6.11315,4.1305 -16.191611,4.9566 -19.000382,-4.4609 z"/><path style="fill:url(#linearGradient46474);fill-opacity:1;stroke:none;display:inline" id="path3695" d="m 92.31749,1162.0972 c -10.26942,23.825 -51.554875,143.365 -52.496506,148.544 -0.941631,5.179 0.941631,15.0663 9.416408,16.0079 8.474786,0.9416 19.303658,0 22.599378,-6.1207 3.2958,-6.1206 36.25326,-98.8724 40.96144,-112.0553 4.70822,-13.183 29.19086,-75.3314 34.84075,-81.452 5.64985,-6.1207 14.59543,-15.5372 24.95351,-19.7745 7.25013,-12.2506 5.55913,-8.9908 6.12065,-20.2453 -4.23736,4.7083 -17.42035,7.0623 -17.42035,7.0623 0,0 26.36597,-36.1395 36.25321,-49.7933 9.88725,-13.6538 31.54499,-38.6073 30.6034,-44.728 -0.94167,-6.1206 -4.70826,-5.179 -9.41649,-2.3541 -4.70818,2.825 -31.54495,32.9575 -34.84071,41.4322 8.47478,-31.0741 -0.4708,-71.5647 -0.4708,-71.5647 l -37.19488,-3.29575 c 0,0 6.59152,50.37785 0.94163,75.80215 -5.64982,25.4243 -36.25322,78.5134 -39.0781,81.8092 -2.82497,-3.7667 -13.6538,-41.9031 -12.24138,-54.1445 1.41246,-12.2413 4.70822,-38.1365 4.70822,-38.1365 0,0 -2.35408,3.2958 -8.94561,0.4708 -6.12065,15.5371 -6.12065,49.9071 -6.12065,49.9071 0,0 -7.53315,-18.8329 -7.06231,-28.7201 -3.29573,0.9417 -7.06233,0 -7.06233,0 0,0 3.7666,32.0159 7.53316,45.1987 3.76656,13.1831 17.65576,38.8429 17.42032,50.3779 -0.1887,9.2483 -2.50081,12.2899 -4.00196,15.7725 z"/><path style="fill:url(#linearGradient4304);fill-opacity:1;stroke:none;display:inline" id="path4296" d="m 146.28798,964.8696 c 0,0 1.6869,12.8841 2.61356,28.8711 l 38.12012,4.5587 c -0.91384,-17.0172 -3.8191,-30.1577 -3.8191,-30.1577 l -36.91458,-3.2721 z"/><path style="fill:#89fe20;fill-opacity:1;stroke:none;display:inline" id="path3703" d="m 145.58838,958.09 c 2.57025,21.7302 12.15021,19.8609 21.73021,13.5522 1.40195,10.7483 14.95411,8.879 14.95411,8.879 0,0 7.00971,10.281 18.22534,2.3365 26.81223,5.579 25.52548,-29.6027 6.7216,-31.9276 10.39344,-3.0708 5.43292,-22.4404 -13.22805,-21.4955 -5.43295,-16.0627 -23.1491,-9.4487 -40.15662,4.0156 -16.77129,-8.5037 -20.31449,25.7475 -8.24659,24.6398 z"/><path style="fill:#000;fill-opacity:.31372549;stroke:none;display:inline" id="path4345" d="m 2392.4301,552.78284 a 44.851692,44.851692 0 1 1 -89.7034,0 44.851692,44.851692 0 1 1 89.7034,0 z" transform="matrix(0.20460463,0,0,0.20460463,-290.66779,802.1056)"/><path style="fill:#5ae813;fill-opacity:1;stroke:none;display:inline" id="path3742" d="m 2177.3458,740.5993 a 22.171007,22.171007 0 1 1 -44.342,0 22.171007,22.171007 0 1 1 44.342,0 z" transform="matrix(0.32416766,0,0,0.32416766,-603.99366,715.2238)"/><path style="fill:#5ae813;fill-opacity:1;stroke:none;display:inline" id="path3744" d="m 2177.3458,740.5993 a 22.171007,22.171007 0 1 1 -44.342,0 22.171007,22.171007 0 1 1 44.342,0 z" transform="matrix(0.22728998,0,0,0.22728998,-379.4267,775.4885)"/><path style="fill:#44de0d;fill-opacity:1;stroke:none;display:inline" id="path3746" d="m 2177.3458,740.5993 a 22.171007,22.171007 0 1 1 -44.342,0 22.171007,22.171007 0 1 1 44.342,0 z" transform="matrix(0.13786441,0,0,0.13786441,-230.81305,836.9091)"/><rect id="rect3750" width="35.555" height="28.367" x="653.829" y="712.073" rx="1.064" ry="1.064" transform="matrix(0.81082108,0.58529409,-0.5853057,0.8108127,0,0)" style="fill:#fff;fill-opacity:1;stroke:none;display:inline"/><rect style="fill:#eb9700;fill-opacity:1;stroke:none;display:inline" id="rect3752" width="22.913" height="18.2" x="660.15" y="717.157" rx="1.064" ry="1.064" transform="matrix(0.81082108,0.58529409,-0.5853057,0.8108127,0,0)"/><rect id="rect3754" width="16.592" height="3.978" x="663.31" y="728.531" rx="1.664" ry="1.664" transform="matrix(0.81082108,0.58529409,-0.5853057,0.8108127,0,0)" style="fill:#fff;fill-opacity:1;stroke:none;display:inline"/><path style="fill:#fff;fill-opacity:1;stroke:none;display:inline" id="path3756" d="m 2079.5,705.75 a 7,7 0 1 1 -14,0 7,7 0 1 1 14,0 z" transform="matrix(0.3142342,0.2268311,-0.22683449,0.31422948,-369.79859,287.44796)"/><path style="fill:url(#linearGradient4099);fill-opacity:1;stroke:none;display:inline" id="path3793" d="m -48.601623,851.1213 c 4.584423,-19.0254 21.088345,-24.9851 37.133806,-11.2318 8.022769,-12.8364 18.566922,-15.5871 32.778614,-13.2949 14.211732,2.2922 15.58704,13.2949 15.58704,13.2949 0,0 13.753307,-4.5845 16.733153,10.0857 1.604538,6.6474 -3.896731,12.3779 -11.9195,8.7104 1.146116,17.1916 -10.085768,30.9448 -26.131193,26.3604 1.604539,16.5039 -13.753306,26.1312 -33.695536,13.9825 -1.833769,10.7734 -17.420807,15.587 -28.194191,7.3351 -3.209115,10.3149 -19.713038,7.1058 -19.713038,7.1058 l 7.793538,-60.0559 9.627307,-2.2922 z"/><path id="path46417" d="m -82.54984,1268.9651 c 0,0 -4.559192,-124.0101 -8.206505,-137.2318 -3.647386,-13.2216 -25.531525,-46.5037 -36.929475,-57.4457 -11.39797,-10.9422 -47.87155,-46.048 -51.97485,-73.403 5.47108,-1.3678 9.11843,-5.4712 9.11843,-5.4712 0,0 16.41309,30.0908 21.42822,33.7382 -5.01513,-24.1638 -2.27961,-30.0907 -2.27961,-30.0907 0,0 10.03023,3.6474 12.76574,0.9118 1.82364,16.413 5.92694,42.4004 11.8539,51.0629 5.92697,8.6625 25.07557,25.5315 27.811052,29.1789 -3.990372,-63.6229 -0.16468,-126.1708 -13.573942,-188.57683 -4.55922,-18.69273 -14.23711,-43.55328 -21.07591,-57.23073 5.92697,-2.2797 15.04538,-7.29484 15.04538,-13.67761 10.03019,11.85393 29.178796,54.2544 29.178796,54.2544 0,0 5.015132,-48.32751 0.91188,-61.0932 5.470998,-0.45588 18.236739,-4.55925 19.604471,-10.94203 6.382907,5.92689 15.957202,1.36764 15.957202,1.36764 0,0 2.27961,66.10833 0,83.43328 l -4.559193,109.48768 c 0,0 26.443315,-31.4583 25.987414,-52.4306 -0.455975,-20.97228 -7.750645,-41.94457 -7.750645,-41.94457 l 14.133477,-1.36779 c 0,0 10.030224,38.29726 4.559232,56.98986 10.942063,-2.7355 26.899219,-38.75315 25.987379,-59.72544 5.131595,5.26645 12.104544,5.65009 15.957157,2.2797 0,0 -4.103254,40.12094 -12.76574,51.97474 -8.662447,11.8539 -38.75312,31.4584 -45.135991,45.136 -6.382914,13.6776 -17.324926,32.8262 -15.045359,76.1386 2.279625,43.3124 6.382878,108.9647 6.382878,108.9647 l -1.823686,83.4332 -35.561702,2.2796 z" style="fill:url(#linearGradient46436);fill-opacity:1;stroke:none;display:inline"/><path style="fill:url(#linearGradient4107);fill-opacity:1;stroke:none;display:inline" id="path3791" d="m -49.060084,885.046 c 0,0 -6.876653,2.5215 -13.294845,-9.6273 -9.627231,11.2319 -24.068226,6.6475 -24.526611,-8.9396 -0.458462,-10.3149 13.753226,-8.0227 13.753226,-8.0227 0,0 -1.604538,-14.6702 9.856538,-19.713 11.461038,-5.0429 23.380538,11.461 23.380538,11.461"/><path style="fill:url(#linearGradient4170);fill-opacity:1;stroke:none;display:inline" id="path4168" d="m 2305.275,375.41479 a 12.23228,12.23228 0 1 1 -24.4646,0 12.23228,12.23228 0 1 1 24.4646,0 z" transform="matrix(0.72025757,0,0,0.72025757,-1503.6207,586.00989)"/><path style="fill:#aeaeae;fill-opacity:1;stroke:none;display:inline" id="path4178" d="m 2305.275,375.41479 a 12.23228,12.23228 0 1 1 -24.4646,0 12.23228,12.23228 0 1 1 24.4646,0 z" transform="matrix(0.68611187,0,0,0.68611187,-1397.5937,613.21119)"/><path style="fill:#c2c2c2;fill-opacity:1;stroke:none;display:inline" id="path4180" d="m 2305.275,375.41479 a 12.23228,12.23228 0 1 1 -24.4646,0 12.23228,12.23228 0 1 1 24.4646,0 z" transform="matrix(0.41294638,0,0,0.41294638,-779.65079,708.3269)"/><path style="fill:#aeaeae;fill-opacity:1;stroke:none;display:inline" id="path4182" d="m 2305.275,375.41479 a 12.23228,12.23228 0 1 1 -24.4646,0 12.23228,12.23228 0 1 1 24.4646,0 z" transform="matrix(0.4497198,0,0,0.4497198,-876.322,681.7282)"/><path style="fill:url(#linearGradient4193);fill-opacity:1;stroke:none;display:inline" id="path4191" d="m 5.26781,899.0288 c 0.463143,10.6518 -3.406338,25.1601 -8.76264,37.2692 l 18.771301,0 c 4.070623,-15.8146 6.037637,-34.9798 6.037637,-34.9798 -3.873971,3.389 -10.886305,3.0061 -16.046298,-2.2894 z"/><path style="fill:url(#linearGradient4218);fill-opacity:1;stroke:none;display:inline" id="path4210" d="m -25.447081,901.7842 -14.212719,1.3676 c 3.8e-5,0 5.526845,15.9026 7.283658,33.8958 l 12.855262,0 c -1.238029,-17.3553 -5.926201,-35.2634 -5.926201,-35.2634 z"/><path id="path4050" d="m 15.580297,885.046 c 1.604539,16.5039 -13.753306,26.1312 -33.695536,13.9825 -1.833769,10.7734 -17.420807,15.587 -28.194191,7.3351 19.443197,-47.8094 52.514677,-35.6272 61.889727,-21.3176 z" style="fill:#3cda0a;fill-opacity:1;stroke:none;display:inline"/><path style="fill:#5ae813;fill-opacity:1;stroke:none;display:inline" id="path4138" d="m 2177.3458,740.5993 a 22.171007,22.171007 0 1 1 -44.342,0 22.171007,22.171007 0 1 1 44.342,0 z" transform="matrix(0.28114038,0,0,0.28114038,-472.44278,794.6316)"/><path id="path4166" d="m 2392.4301,552.78284 a 44.851692,44.851692 0 1 1 -89.7034,0 44.851692,44.851692 0 1 1 89.7034,0 z" transform="matrix(0.33890255,0,0,0.33890255,-642.03057,744.5251)" style="fill:#000;fill-opacity:.39215686;stroke:none;display:inline"/><path style="fill:#fe4023;fill-opacity:1;stroke:none;display:inline" id="path3709" d="m 2392.4301,552.78284 a 44.851692,44.851692 0 1 1 -89.7034,0 44.851692,44.851692 0 1 1 89.7034,0 z" transform="matrix(0.33890255,0,0,0.33890255,-644.2025,741.5178)"/><path id="path3711" d="m 2392.4301,552.78284 a 44.851692,44.851692 0 1 1 -89.7034,0 44.851692,44.851692 0 1 1 89.7034,0 z" transform="matrix(0.24680941,0,0,0.24680941,-428.00678,792.4253)" style="fill:#fff;fill-opacity:1;stroke:#fe4023;stroke-width:3.94029856;stroke-linecap:butt;stroke-linejoin:miter;stroke-miterlimit:4;stroke-opacity:1;stroke-dasharray:none;display:inline"/><path style="fill:#fff;fill-opacity:1;stroke:#fe4023;stroke-width:.97250289;stroke-linecap:butt;stroke-linejoin:miter;stroke-miterlimit:4;stroke-opacity:1;display:inline" id="path3713" d="m 162.46756,928.8573 -11.06986,0 0,-11.0699 c 6.11056,0 11.06986,4.9593 11.06986,11.0699 z"/><path id="path3716" d="m 162.46756,928.8573 -11.06986,0 0,-11.0699 c 6.11056,0 11.06986,4.9593 11.06986,11.0699 z" style="fill:#fff;fill-opacity:1;stroke:#fe4023;stroke-width:.97250289;stroke-linecap:butt;stroke-linejoin:miter;stroke-miterlimit:4;stroke-opacity:1;display:inline"/><path style="fill:#fff;fill-opacity:1;stroke:#fe4023;stroke-width:.97250289;stroke-linecap:butt;stroke-linejoin:miter;stroke-miterlimit:4;stroke-opacity:1;display:inline" id="path3718" d="m 151.3977,939.9909 0,-11.0698 11.06986,0 c 0,6.1105 -4.95927,11.0698 -11.06986,11.0698 z"/><path style="fill:#fff;fill-opacity:1;stroke:#fe4023;stroke-width:.97250289;stroke-linecap:butt;stroke-linejoin:miter;stroke-miterlimit:4;stroke-opacity:1;display:inline" id="path3720" d="m 140.24528,928.8573 11.06983,0 0,-11.0699 c -6.11052,0 -11.06983,4.9593 -11.06983,11.0699 z"/><path id="path3722" d="m 151.31511,939.9909 0,-11.0698 -11.06983,0 c 0,6.1105 4.95927,11.0698 11.06983,11.0698 z" style="fill:#fff;fill-opacity:1;stroke:#fe4023;stroke-width:.97250289;stroke-linecap:butt;stroke-linejoin:miter;stroke-miterlimit:4;stroke-opacity:1;display:inline"/><path id="path4331" d="m 2392.4301,552.78284 a 44.851692,44.851692 0 1 1 -89.7034,0 44.851692,44.851692 0 1 1 89.7034,0 z" transform="matrix(0.20460463,0,0,0.20460463,-291.96446,800.8089)" style="fill:#fe4023;fill-opacity:1;stroke:none;display:inline"/><path style="fill:#fff;fill-opacity:1;stroke:#fe4023;stroke-width:.51141453;stroke-linecap:butt;stroke-linejoin:miter;stroke-miterlimit:4;stroke-opacity:1;display:inline" id="path4333" d="m 194.17976,913.929 c 0,-3.2134 -2.60927,-5.8386 -5.84396,-5.8386 -3.23465,0 -5.84391,2.6092 -5.84391,5.8386 0,3.2294 2.60926,5.8387 5.84391,5.8387 3.23469,0 5.84396,-2.6253 5.84396,-5.8387 z"/><path style="fill:#63ec16;fill-opacity:1;stroke:none;display:inline" id="path7018" d="m 1897.9106,947.89508 a 20.411781,20.411781 0 1 1 -40.8236,0 20.411781,20.411781 0 1 1 40.8236,0 z" transform="matrix(0.32416766,0,0,0.32416766,-577.23849,591.44953)"/><path style="fill:#63ec16;fill-opacity:1;stroke:none;display:inline" id="path7024" d="m 1897.9106,947.89508 a 20.411781,20.411781 0 1 1 -40.8236,0 20.411781,20.411781 0 1 1 40.8236,0 z" transform="matrix(0.2177888,0,0,0.2177888,-362.98078,679.0902)"/><path style="fill:#000;fill-opacity:.31372549;stroke:none;display:inline" id="path7061" d="m 27.808183,839.99973 c -2.383306,-0.019 -4.579779,0.2788 -6.473225,0.8408 -1.523643,1.56391 -2.822659,2.43916 -4.94355,2.7757 -0.740975,0.7789 -1.265926,1.6739 -1.5398,2.6744 -1.533596,5.6025 5.489167,12.4081 15.671491,15.1953 10.182325,2.7873 19.689213,0.507 21.222809,-5.0955 1.533634,-5.6025 -5.489129,-12.4182 -15.671453,-15.2055 -2.863766,-0.7839 -5.671509,-1.1647 -8.266272,-1.1852 z"/><g style="display:inline" id="g7520" transform="matrix(0.19375064,0,0,0.19375064,-301.2817,398.43416)"><path id="path4761" d="m 2414.7188,1573.8125 c -14.2967,0.3261 -8.0815,24.3498 -19.4376,30.9063 -26.3156,15.1932 -100.375,55.2187 -100.375,55.2187 L 2314,1693 c 1e-4,0 90.5974,-58.0569 103.6562,-65.9688 22.4883,-13.6247 20.8817,-53.762 -2.9374,-53.2187 z m 2.5624,7.9063 c 5.0827,-1e-4 9.2188,6.4747 9.2188,14.4374 1e-4,7.9627 -4.1362,14.4063 -9.2188,14.4063 -5.0825,0 -9.1874,-6.4435 -9.1874,-14.4063 -1e-4,-7.9627 4.1049,-14.4375 9.1874,-14.4374 z" style="fill:url(#linearGradient7539);fill-opacity:1;stroke:none;display:inline"/><rect id="rect4931" width="186.998" height="104.523" x="1014.465" y="2542.467" rx="72.149" ry="44.377" transform="matrix(0.8688861,-0.4950121,0.4950121,0.8688861,0,0)" style="fill:#fe4023;fill-opacity:1;stroke:none;display:inline"/><path id="path4013" d="m 2227.1036,1687.8463 c 29.5153,14.3236 47.3114,36.8941 53.8221,47.3113 15.1917,-5.6426 22.1365,-9.115 22.1365,-9.115 0,0 -37.7623,-39.4984 -59.8987,-51.2178 -22.1365,-11.7193 -16.0599,13.4555 -16.0599,13.0215 z" style="fill:url(#linearGradient7541);fill-opacity:1;stroke:none;display:inline"/><path id="path4933" d="m 2240.0685,1666.3611 c 0,0 49.1833,28.5342 69.5167,41.9415 24.3213,16.0368 83.4761,48.6732 78.8613,56.6592 -4.8514,8.3952 -62.4937,-26.8583 -88.5604,-39.8749 -21.7926,-10.8822 -71.1279,-39.1533 -71.1279,-39.1533 l 11.3103,-19.5725 z" style="fill:#fff;fill-opacity:1;stroke:none;display:inline"/><path style="fill:#fff;fill-opacity:1;stroke:none;display:inline" id="path4935" d="m 2239.4956,1682.9814 c 0,0 -40.4942,23.0416 -62.272,33.9471 -26.0489,13.0445 -83.8902,47.9559 -88.4989,39.9663 -4.8448,-8.399 54.5068,-40.692 78.8129,-56.7581 20.3205,-13.4318 60.6629,-36.7366 60.6629,-36.7366 l 11.2951,19.5813 z"/><path id="path4937" d="m 2245.1733,1674.3518 c 0,0 -13.3379,-44.6407 -21.5384,-67.5744 -9.8086,-27.4317 -21.606,-76.1974 -30.4589,-73.6091 -9.3065,2.7211 5.3921,50.6385 11.8528,79.0492 5.4011,23.7521 18.4474,68.4781 18.4474,68.4781 l 21.6971,-6.3438 z" style="fill:#fff;fill-opacity:1;stroke:none;display:inline"/><path id="path4947" d="m 2236.8507,1673.4592 c 0,9.8921 -8.0191,17.9113 -17.9112,17.9113 -9.8922,0 -17.9113,-8.0192 -17.9113,-17.9113 0,-9.8921 8.0191,-17.9112 17.9113,-17.9112 9.8921,0 17.9112,8.0191 17.9112,17.9112 z" transform="matrix(1,0,0,0.7868853,12.321307,353.42499)" style="fill:#9c210e;fill-opacity:1;stroke:none;display:inline"/><path id="path3230" d="m 2181.5285,1711.2849 c 10.4172,26.043 55.5583,4.3405 55.5583,4.3405 l 16.9279,16.4939 c 0,0 -45.1411,27.7791 -75.9585,10.4171 -14.7577,-7.3788 -14.7577,-19.5321 -14.7577,-19.5321 l 18.23,-11.7194 z" style="fill:#fff;fill-opacity:1;stroke:none"/><path id="path4041" d="m 2244.6826,1662.8885 c 0.6511,9.3321 -11.7193,14.5406 -19.0981,14.9747 7.5992,4.9898 26.369,0.3795 19.0981,-14.9747 z" style="fill:#000;fill-opacity:.19607843;stroke:none;display:inline"/><path id="path4047" d="m 2212.3343,1721.5128 7.268,25.4609 -6.8016,2.3152 -5.4756,-27.8852 5.0092,0.1091 z" style="fill:#fe4023;fill-opacity:1;stroke:none"/><path style="fill:#fe4023;fill-opacity:1;stroke:none" id="path4051" d="m 2190.3768,1719.3257 -12.5598,26.8267 -6.9642,-1.7666 15.3838,-27.8821 4.1402,2.822 z"/><path id="path4062" d="m 2425.6809,1596.696 c 0,4.315 -2.7206,7.8129 -6.0767,7.8129 -3.356,0 -6.0766,-3.4979 -6.0766,-7.8129 0,-4.3149 2.7206,-7.8128 6.0766,-7.8128 3.3561,0 6.0767,3.4979 6.0767,7.8128 z" transform="matrix(1.1785714,0,0,1.3333333,-434.02541,-532.66607)" style="fill:#fff;fill-opacity:1;stroke:none"/><rect id="rect4064" width="5.064" height="21.638" x="2415.911" y="1593.226" rx="2.15" ry="2.15" style="fill:#fe4023;fill-opacity:1;stroke:none"/></g><path style="fill:#000;fill-opacity:.31372549;stroke:none;display:inline" id="path7047" d="m 2636.3722,1059.4651 a 35.705425,44.08527 0 1 1 -71.4109,0 35.705425,44.08527 0 1 1 71.4109,0 z" transform="matrix(-0.09869886,-0.30877691,-0.34303601,-0.00847985,696.80035,1776.7849)"/><path style="fill:#6af018;fill-opacity:1;stroke:none;display:inline" id="path7344" d="m 1897.9106,947.89508 a 20.411781,20.411781 0 1 1 -40.8236,0 20.411781,20.411781 0 1 1 40.8236,0 z" transform="matrix(0.32416766,0,0,0.32416766,-572.0745,618.9583)"/><path style="fill:#5de914;fill-opacity:1;stroke:none;display:inline" id="path7352" d="m 1897.9106,947.89508 a 20.411781,20.411781 0 1 1 -40.8236,0 20.411781,20.411781 0 1 1 40.8236,0 z" transform="matrix(0.37707435,0,0,0.37707435,-540.97608,651.24442)"/><path style="fill:#72c2ff;fill-opacity:1;stroke:none;display:inline" id="path4209" d="m 25.144076,815.58683 c -5.679348,1.1949 -12.399464,0.714 -10.158728,-1.5767 1.205336,-1.2322 10.216045,-3.4525 11.443455,-2.1711 2.251317,-2.9958 1.957728,-4.9403 1.957728,-4.9403 -2.618093,-1.498 -9.68607,-0.7883 -14.567698,1.2408 -3.104033,1.2902 -5.733583,2.8179 -6.299104,5.2703 -1.222234,5.2999 4.353441,8.6783 13.452715,9.5801 -0.686284,3.7155 -2.410481,16.2939 -3.66438,25.2545 7.85017,5.9034 14.665548,5.9063 24.211447,4.5128 0,0 8.958568,-20.3407 6.150673,-27.2261 -1.291044,-3.166 -7.168948,-6.9565 -7.168948,-6.9565 l -15.35716,-2.9878 z"/><path style="fill:url(#linearGradient4245);fill-opacity:1;stroke:none;display:inline" id="path4237" d="m 47.839434,834.81213 -6.149,17.7324 c 0,0 -4.730494,-1.7765 -7.015265,0.4606 -2.28477,2.2371 -4.816736,-14.0944 13.164265,-18.193 z"/><path style="fill:url(#radialGradient4260);fill-opacity:1;stroke:none;display:inline" id="path4250" d="m 23.376454,804.55973 c -1.382501,1.6736 -2.416418,3.6527 -2.978248,5.8522 2.241992,-0.3371 5.247605,0.6108 6.030711,1.4284 2.251393,-2.9958 3.707767,-5.2225 3.707767,-5.2225 0,0 -3.100151,-1.412 -6.76023,-2.0581 z m 1.719972,10.9604 c -2.078223,0.4372 -3.758576,1.5217 -4.942941,1.3422 1.149693,6.3521 6.319961,11.5054 13.06139,12.3265 3.043368,0.3706 10.721852,-4.084 13.278062,-5.354 l -5.356835,-5.7597 -16.039676,-2.555 z"/><path style="fill:#72c2ff;fill-opacity:1;stroke:none;display:inline" id="path4207" d="m 47.265006,824.79263 c 4.386439,8.4812 4.486192,27.1632 4.454489,31.4489 -0.14493,2.6503 3.561507,4.3467 2.566104,8.1385 -0.995401,3.7918 -9.573948,0.2441 -9.54175,-4.8972 0.03349,-5.377 -0.668015,-20.8705 -2.258548,-25.8753"/><path style="fill:#c1e7ff;fill-opacity:1;stroke:none;display:inline" id="path4205" d="m 1865.4371,293.24899 a 32.406864,32.406864 0 1 1 -64.8137,0 32.406864,32.406864 0 1 1 64.8137,0 z" transform="matrix(0.28703602,0.03495792,-0.03919056,0.32178995,-479.60972,655.72723)"/><path style="fill:#000;fill-opacity:.23529412;stroke:none;display:inline" id="path4265" d="m 27.44742,808.50483 c -0.198783,-0.024 -0.396539,-0.032 -0.589309,-0.021 -0.543371,1.0657 -0.91658,2.2469 -1.06954,3.5027 -0.05408,0.4439 -0.07962,0.8847 -0.07798,1.3206 1.616717,0.3507 2.02064,0.6225 4.778601,0.9977 1.781856,0.2424 3.149476,-0.058 3.745255,-1.6636 0.625579,-1.686 -0.607501,-3.3841 -2.392554,-3.6015 l -4.39447,-0.5352 z"/><path style="fill:#c1e7ff;fill-opacity:1;stroke:none;display:inline" id="path4235" d="m 22.250015,811.75313 c -1.59567,0.432 -1.957423,-5.4059 0.508586,-5.6791 7.124228,-0.3792 10.885849,2.0235 10.081772,4.5397 -1.355555,4.2417 -6.226107,0.6444 -10.590358,1.1394 z"/><path style="fill:#c1e7ff;fill-opacity:1;stroke:none;display:inline" id="path4417" d="m 44.560708,852.29483 c 0.132104,2.9479 0.191286,5.539 0.18101,7.1837 -0.03197,5.1413 8.551944,8.6896 9.547345,4.8978 0.99544,-3.7918 -2.716287,-5.48 -2.571395,-8.1303 0.0065,-0.8562 0.0069,-2.2886 -0.03121,-4.0993 -2.287473,-2.3998 -4.881323,-1.8014 -7.125941,0.1481 z"/><path style="fill:#ad1f1f;fill-opacity:1;stroke:none;display:inline" id="path4442" d="m 79.718921,931.05935 c -3.857611,0.75372 -6.485428,3.77146 -8.547434,8.7845 -2.557507,6.21769 -2.332019,10.32049 -2.332019,10.32049 l -3.473218,0.20843 c 0,0 -6.713564,1.59707 -8.012471,6.92497 l 8.31177,4.88992 c 1.504796,-1.37256 5.434413,-2.37929 5.434413,-2.37929 0,0 17.623408,8.31805 20.240478,-6.61275 2.61713,-14.93071 2.74955,-16.25456 -4.91319,-21.34653 -7.662631,-5.092 -6.594016,-0.76696 -6.708329,-0.78974 z"/><path id="path4448" d="m 75.790424,954.22558 c 0,0 -1.035475,1.73394 -2.334323,7.06176 -1.298853,5.3278 3.422344,17.46173 3.422344,17.46173 0,0 -2.410472,4.65837 -1.546223,7.0828 1.353487,3.79684 6.318868,-3.90351 6.318868,-3.90351 2.00893,-2.7362 -5.384665,-14.9773 -1.714983,-18.08137 1.115223,-0.94324 9.468333,-5.47679 10.704363,-6.83862 l -14.850046,-2.78279 z" style="fill:#e76f6f;fill-opacity:1;stroke:none;display:inline"/><path id="path4512" d="m 59.064173,955.34838 c -1.298769,5.32775 -6.874116,17.32454 -6.874116,17.32454 0,0 -5.793746,2.53191 -3.928953,3.81605 3.319914,2.286 7.624173,0.51992 7.624173,0.51992 0.669092,-0.29315 1.61893,-1.005 2.716076,-3.69441 2.021941,-4.95648 4.174192,-12.28691 6.472101,-14.38279 l -6.009281,-3.58331 z" style="fill:#e76f6f;fill-opacity:1;stroke:none;display:inline"/><path style="fill:#ad1f1f;fill-opacity:1;stroke:none;display:inline" id="path4510" d="m 79.487699,969.72082 c -12.629883,0.68228 -23.081922,-7.39338 -23.081922,-7.39338 0,0 1.905018,-9.09622 4.648487,-10.69943 2.743494,-1.60319 9.588801,-5.04086 9.588801,-5.04086 l 18.122245,6.00837 1.6481,4.52064 c 0,0 -2.62305,3.44673 -6.32068,4.61381 -3.69767,1.1672 -6.066439,5.23807 -4.605031,7.99085 z"/><path style="fill:url(#linearGradient4527);fill-opacity:1;stroke:none;display:inline" id="path4519" d="m 90.92144,954.54863 1.36227,-15.89518 c 0,0 -11.96487,5.40984 -11.59287,11.10405 0.37182,5.6943 2.88779,11.53583 5.8127,11.06882 2.47472,-0.39508 4.4179,-6.27769 4.4179,-6.27769 z"/><path style="fill:gray;fill-opacity:1;stroke:none;display:inline" id="path4452" d="m 68.064336,946.27828 c -0.561182,-0.21694 -1.33493,-0.36536 -1.725961,-0.33583 l -4.347599,3.80852 c -0.391091,0.0296 -0.25948,0.231 0.301668,0.44823 l -0.955617,1.24334 c -0.391091,0.0296 -0.25561,0.2217 0.305448,0.43849 l 11.700989,5.37453 c 0.56126,0.21689 1.331302,0.37497 1.722265,0.34535 l 10.909651,-2.5968 0.34836,-2.12991 -18.259361,-6.59579 z"/><path style="fill:#b3b3b3;fill-opacity:1;stroke:none;display:inline" id="path4454" d="m 86.285,952.92044 c -3.1593,0.0707 -9.743687,3.0112 -13.268931,2.49583 0,0 0.05968,0.38945 -0.230036,1.6238 l 0.557388,0.21537 c 0.56126,0.21688 1.331302,0.37497 1.722343,0.34529 l 8.542926,-2.41803 2.43821,-0.26349 0.2381,-1.99877 z"/><path id="path4456" d="m 68.064336,946.27828 c -0.561182,-0.21694 -1.33493,-0.36536 -1.725961,-0.33583 l -3.775688,3.51122 c -0.391062,0.0295 -0.259418,0.23107 0.301644,0.44819 l -0.955677,1.24343 c -0.391091,0.0296 -0.255858,0.22138 0.305453,0.4385 l 11.129,5.6719 c 0.56126,0.21688 1.331302,0.37497 1.722343,0.34528 l 10.90957,-2.59674 0.34836,-2.12991 -18.259358,-6.59579 z" style="fill:url(#linearGradient4478);fill-opacity:1;stroke:none;display:inline"/><rect style="fill:#999;fill-opacity:1;stroke:none;display:inline" id="rect4458" width="16.499" height="16.835" x="166.011" y="880.222" rx="1.068" ry="1.068" transform="matrix(0.93274457,0.36053788,-0.10684083,0.99427614,0,0)"/><path style="fill:#ad1f1f;fill-opacity:1;stroke:none;display:inline" id="path4460" d="m 89.19372,944.0444 -1.11036,-14.36915 c 7.94519,5.68546 7.57654,11.67032 7.99425,13.60424 l -2.32754,18.14745 c -0.914,3.75033 -1.05164,3.76852 -5.03362,2.62031 -0.0655,-1.00264 1.43822,-12.95887 0.47727,-20.00285 z"/><path style="fill:url(#radialGradient4646);fill-opacity:1;stroke:none;display:inline" id="path4638" d="m 89.94838,934.42656 c 0.94033,0.81882 1.62847,1.6229 2.11007,2.52557 -1.09197,1.21104 -2.41464,2.17911 -3.93097,2.79057 -5.24693,2.11618 -10.814767,-0.81606 -12.653209,-6.56035 1.232038,-1.08835 2.633351,-1.80675 4.247393,-2.12211 0.114615,0.0225 -0.956707,-4.3024 6.705906,0.78957 1.43678,0.95476 2.59699,1.77255 3.52066,2.57688 z"/><path style="fill:#e76f6f;fill-opacity:1;stroke:none;display:inline" id="path4464" d="m 1867.734,293.24899 a 34.703754,32.406864 0 1 1 -69.4075,0 34.703754,32.406864 0 1 1 69.4075,0 z" transform="matrix(0.20338943,-0.08202876,0.06699038,0.24530994,-307.35005,1007.1439)"/><path style="fill:#e76f6f;fill-opacity:1;stroke:none;display:inline" id="path4517" d="m 93.83151,960.80036 -0.0836,0.62856 c -0.12176,2.15145 6.0669,8.23937 1.93745,8.20552 -4.22489,-0.0347 -6.90796,-4.58659 -6.97343,-5.58932 -0.0206,-0.31542 0.12308,-1.78492 0.28754,-3.77481 1.08812,0.26739 2.98322,0.64138 4.83201,0.53005 z"/><path style="fill:none;stroke:#000;stroke-width:.625;stroke-linecap:square;stroke-linejoin:miter;stroke-miterlimit:4;stroke-opacity:1;stroke-dasharray:none" id="path8641" d="m 0.3125,658.81802 0,22.08347"/><rect style="color:#000;fill:#fff;fill-opacity:1;fill-rule:nonzero;stroke:none;stroke-width:.63;marker:none;visibility:visible;display:inline;overflow:visible;enable-background:accumulate" id="rect8622" width="270" height="450" x="-281.25" y="658.61"/><path id="path9415" d="m -33.4375,692.67225 21.878839,0" style="fill:none;stroke:#000;stroke-width:.625;stroke-linecap:square;stroke-linejoin:miter;stroke-miterlimit:4;stroke-opacity:1;stroke-dasharray:none"/><path id="path9417" d="m -33.43,1052.0473 21.8788,0" style="fill:none;stroke:#000;stroke-width:.625;stroke-linecap:square;stroke-linejoin:miter;stroke-miterlimit:4;stroke-opacity:1;stroke-dasharray:none"/><rect style="color:#000;fill:#fff;fill-opacity:1;fill-rule:nonzero;stroke:none;stroke-width:.63;marker:none;visibility:visible;display:inline;overflow:visible;enable-background:accumulate" id="rect8624" width="517.5" height="202.5" x="-112.5" y="1063.61"/><path style="fill:none;stroke:#000;stroke-width:.625;stroke-linecap:square;stroke-linejoin:miter;stroke-miterlimit:4;stroke-opacity:1;stroke-dasharray:none" id="path9421" d="m 179.6875,1086.0059 0,-22.0834"/><rect style="color:#000;fill:#fff;fill-opacity:1;fill-rule:nonzero;stroke:none;stroke-width:.63;marker:none;visibility:visible;display:inline;overflow:visible;enable-background:accumulate" id="rect8626" width="202.5" height="472.5" x="191.25" y="647.36"/><path id="path9423" d="m 213.64598,1052.0475 -22.08348,0" style="fill:none;stroke:#000;stroke-width:.625;stroke-linecap:square;stroke-linejoin:miter;stroke-miterlimit:4;stroke-opacity:1;stroke-dasharray:none"/><path id="path9429" d="m 213.64598,692.6725 -22.08348,0" style="fill:none;stroke:#000;stroke-width:.625;stroke-linecap:square;stroke-linejoin:miter;stroke-miterlimit:4;stroke-opacity:1;stroke-dasharray:none"/><path style="fill:none;stroke:#000;stroke-width:.625;stroke-linecap:square;stroke-linejoin:miter;stroke-miterlimit:4;stroke-opacity:1;stroke-dasharray:none" id="path9431" d="m 179.6875,658.71403 0,22.08347"/><path id="path9433" d="m 0.3125,1086.0057 0,-22.0834" style="fill:none;stroke:#000;stroke-width:.625;stroke-linecap:square;stroke-linejoin:miter;stroke-miterlimit:4;stroke-opacity:1;stroke-dasharray:none"/><g style="display:inline;enable-background:new" id="g3708" transform="matrix(1.0760363,0,0,1.0760363,-617.01211,665.38081)"><path id="path3463" d="m 609.3134,79.51296 c 0,0 -4.31942,0.884258 -5.69111,4.095477 -0.63051,1.476059 -0.66673,2.766377 -0.53188,3.749743 l -11.0631,7.84522 0,3.404026 18.40303,0 0,-0.558477 c 3.17468,0.254945 6.06342,-2.233892 6.06342,-2.233892 0,0 -1.65484,-2.239123 -3.85613,-3.430616 6.05736,-2.188376 5.59367,-9.59405 5.59367,-9.59405 10e-6,8e-6 -6.14891,-0.509574 -8.97109,3.078527 1.10271,-2.637356 0.0532,-6.355958 0.0532,-6.355958 z" style="fill:url(#linearGradient36425-5);fill-opacity:1;fill-rule:nonzero;stroke:none;stroke-width:1;marker:none;visibility:visible;display:inline;overflow:visible;enable-background:accumulate"/><g style="fill:url(#linearGradient15834-6);fill-opacity:1" id="g3465" transform="matrix(0.8084497,0,0,0.8084497,260.56293,-436.9905)"><path style="font-size:76.80299377px;font-style:italic;font-variant:normal;font-weight:400;font-stretch:normal;text-align:start;line-height:100%;writing-mode:lr-tb;text-anchor:start;fill:url(#linearGradient3772-5-6);fill-opacity:1;fill-rule:nonzero;stroke:none;stroke-width:3.11843681;marker:none;visibility:visible;display:inline;overflow:visible;enable-background:accumulate;font-family:Parisine;-inkscape-font-specification:Parisine Italic" id="path3467" d="M 406.75,661.84375 399.90625,675 l 6.875,0 3.71875,-7.09375 19.875,0 3.65625,7.09375 6.875,0 -6.84375,-13.15625 -27.3125,0 z"/><path style="fill:url(#linearGradient3774-3-2);fill-opacity:1;fill-rule:nonzero;stroke:none;stroke-width:3.11843681;marker:none;visibility:visible;display:inline;overflow:visible;enable-background:accumulate" id="path3469" d="m 414.32413,637.20497 -7.66675,24.15097 26.38185,-7.06898 -18.7151,-17.08199 z"/><path style="fill:url(#linearGradient3776-4-5);fill-opacity:1;fill-rule:nonzero;stroke:none;stroke-width:3.11843681;marker:none;visibility:visible;display:inline;overflow:visible;enable-background:accumulate" id="path3471" d="m 409.56809,600.77081 c 0,1.45739 -1.18145,2.63883 -2.63883,2.63883 -1.45738,0 -2.63883,-1.18144 -2.63883,-2.63883 0,-1.45738 1.18145,-2.63882 2.63883,-2.63882 1.45738,0 2.63883,1.18144 2.63883,2.63882 z" transform="matrix(1.6050535,0,0,1.6050535,-246.48889,-303.49855)"/></g><path style="fill:#277799;fill-opacity:1;fill-rule:nonzero;stroke:none;stroke-width:3.11843681;marker:none;visibility:visible;display:inline;overflow:visible;enable-background:accumulate" id="path3473" d="m 409.56809,600.77081 c 0,1.45739 -1.18145,2.63883 -2.63883,2.63883 -1.45738,0 -2.63883,-1.18144 -2.63883,-2.63883 0,-1.45738 1.18145,-2.63882 2.63883,-2.63882 1.45738,0 2.63883,1.18144 2.63883,2.63882 z" transform="matrix(0.64402736,0,0,0.64402736,327.24895,-289.70339)"/><path id="path3475" d="m 595.58004,85.951421 c 0,0 -1.87969,3.182009 0.0318,7.348088 -1.37105,-0.747331 -3.88968,-0.558606 -3.88968,-0.558606 0,0 -0.48802,3.208914 1.63143,4.712218 0,0 5.81302,0.238631 5.81302,0.238606 -0.0284,0.01924 0.21278,-0.616127 -0.0758,-1.717955 0.38687,0.123183 0.65688,0.151584 0.65688,0.151584 -0.0239,0.0016 0.16263,-0.161738 0.40422,-0.505281 0.52583,0.83432 1.08635,1.237947 1.08635,1.237939 -0.0578,-0.02797 1.02835,-0.01892 2.51707,-3.04573 1.48873,-3.026827 -0.0103,-6.092404 -0.0103,-6.092404 0,0 -2.69906,0.186186 -3.7353,1.809674 -1.44666,-3.07248 -4.42964,-3.578133 -4.42964,-3.578133 z" style="fill:url(#linearGradient36417-2);fill-opacity:1;fill-rule:nonzero;stroke:none;stroke-width:1;marker:none;visibility:visible;display:inline;overflow:visible;enable-background:accumulate"/><path style="font-size:74.92795563px;font-style:normal;font-variant:normal;font-weight:400;font-stretch:normal;text-align:start;line-height:100%;writing-mode:lr-tb;text-anchor:start;opacity:.98999999;fill:url(#linearGradient36414-6);fill-opacity:1;fill-rule:nonzero;stroke:none;stroke-width:1;marker:none;visibility:visible;display:inline;overflow:visible;enable-background:accumulate;font-family:Museo Sans;-inkscape-font-specification:Museo Sans" id="path3477" d="m 620.62735,82.842657 -0.68667,4.319433 4.55165,0 0,21.55096 4.31944,0 0,-21.55096 7.57632,0 0,-4.319433 -15.76074,0 z m 20.68073,0 0,25.870393 4.29634,0 0,-21.55096 8.63886,0 c 1.168,1.7e-5 2.20403,0.425496 3.04901,1.270422 0.84492,0.844968 1.2473,1.857907 1.24732,3.025906 -2e-5,1.192892 -0.4024,2.204077 -1.24732,3.049012 -0.84498,0.844967 -1.88101,1.270438 -3.04901,1.270422 l -6.00563,-0.02312 0,4.342528 4.68901,0 4.9893,8.61576 4.94308,0 -5.31267,-9.285614 c 1.54077,-0.621277 2.79408,-1.653805 3.78816,-3.095214 1.01889,-1.466221 1.52449,-3.08447 1.52451,-4.873796 -2e-5,-2.360867 -0.82786,-4.408096 -2.51773,-6.098015 -1.68993,-1.689886 -3.73715,-2.517714 -6.09803,-2.517746 l -12.9352,0 z m 26.74814,0 0,25.870393 4.29634,0 0,-25.870393 -4.29634,0 z m 9.5397,0 0,15.106456 c 0,2.957337 1.0308,5.485307 3.11832,7.622537 2.1372,2.08752 4.66694,3.1414 7.59943,3.1414 2.95729,0 5.50836,-1.05387 7.64561,-3.1414 2.11236,-2.11238 3.16448,-4.64035 3.16451,-7.622537 l 0,-15.106456 -4.31943,0 0,15.106456 c -3e-5,1.764466 -0.64804,3.259917 -1.94028,4.527317 -1.2426,1.26744 -2.76114,1.91719 -4.55041,1.91718 -1.78934,1e-5 -3.3061,-0.64973 -4.57353,-1.91718 -1.24257,-1.24255 -1.87098,-2.737999 -1.87097,-4.527317 l 0,-15.106456 -4.27325,0 z m 26.72504,0 0,25.870393 4.29634,0 0,-15.452945 8.63886,8.615765 8.61576,-8.615765 0,15.452945 4.36563,0 0,-25.870393 -12.98139,12.935195 -12.9352,-12.935195 z"/><g style="font-size:15.78708172px;font-style:normal;font-variant:normal;font-weight:700;font-stretch:normal;text-align:start;line-height:100%;writing-mode:lr-tb;text-anchor:start;fill:#31ccff;fill-opacity:1;fill-rule:nonzero;stroke:none;stroke-width:3.11843681;marker:none;visibility:visible;display:inline;overflow:visible;enable-background:accumulate;font-family:Telegrafico;-inkscape-font-specification:Telegrafico Bold" id="text3479"><path style="line-height:100%;fill:#31ccff;fill-opacity:1;marker:none;font-family:Telegrafico;-inkscape-font-specification:Telegrafico Bold" id="path36428" d="m 604.83781,68.725188 c 1.16581,8e-6 2.15756,0.412901 2.97526,1.238679 0.83387,0.825792 1.25081,1.817544 1.25082,2.975257 -10e-6,1.173915 -0.41695,2.165666 -1.25082,2.975258 -0.8177,0.825786 -1.80945,1.238679 -2.97526,1.238679 -1.16582,0 -2.15757,-0.412893 -2.97526,-1.238679 -0.82578,-0.817688 -1.23868,-1.809439 -1.23867,-2.975258 -10e-6,-1.157713 0.41289,-2.149465 1.23867,-2.975257 0.8096,-0.825778 1.80135,-1.238671 2.97526,-1.238679 m 0,1.408694 c -0.76912,7e-6 -1.43298,0.275268 -1.9916,0.825785 -0.54243,0.55053 -0.81364,1.210348 -0.81364,1.979457 0,0.769118 0.27121,1.432985 0.81364,1.991602 0.55862,0.542429 1.22248,0.813643 1.9916,0.813641 0.76911,2e-6 1.42893,-0.271212 1.97946,-0.813641 0.55052,-0.558617 0.82578,-1.222484 0.82579,-1.991602 -10e-6,-0.769109 -0.27527,-1.428927 -0.82579,-1.979457 -0.55053,-0.550517 -1.21035,-0.825778 -1.97946,-0.825785"/><path style="line-height:100%;fill:#31ccff;fill-opacity:1;marker:none;font-family:Telegrafico;-inkscape-font-specification:Telegrafico Bold" id="path36430" d="m 612.90488,70.133882 0,2.805242 2.81739,0 c 0.3805,5e-6 0.70838,-0.137626 0.98365,-0.412892 0.27526,-0.275257 0.41289,-0.603143 0.41289,-0.983657 0,-0.388599 -0.13763,-0.720532 -0.41289,-0.995801 -0.27527,-0.275255 -0.60315,-0.412885 -0.98365,-0.412892 l -2.81739,0 m 0,4.213936 0,2.805243 -1.39655,0 0,-8.427873 4.21394,0 c 0.7691,8e-6 1.42892,0.27527 1.97945,0.825786 0.55052,0.550531 0.82578,1.214397 0.82579,1.991601 -10e-6,0.769119 -0.27527,1.432985 -0.82579,1.991601 -0.55053,0.542431 -1.21035,0.813645 -1.97945,0.813642 l -2.81739,0"/><path style="line-height:100%;fill:#31ccff;fill-opacity:1;marker:none;font-family:Telegrafico;-inkscape-font-specification:Telegrafico Bold" id="path36432" d="m 626.55406,68.725188 0,1.408694 -4.21393,0 0,2.11304 4.21393,0 0,1.396549 -4.21393,0 0,2.100896 4.21393,0 0,1.408694 -5.61048,0 0,-8.427873 5.61048,0"/><path style="line-height:100%;fill:#31ccff;fill-opacity:1;marker:none;font-family:Telegrafico;-inkscape-font-specification:Telegrafico Bold" id="path36434" d="m 628.99129,68.713044 5.61048,5.051866 0,-5.051866 1.4087,0 0,8.427873 0,-0.01214 0,0.02429 -5.62263,-5.051866 0,5.039722 -1.39655,0 0,-8.427873"/></g></g><text style="font-size:16px;font-style:normal;font-variant:normal;font-weight:400;font-stretch:normal;text-align:center;line-height:100%;writing-mode:lr-tb;text-anchor:middle;fill:#7bdeff;fill-opacity:1;stroke:none;display:inline;font-family:Liberation Sans;-inkscape-font-specification:Liberation Sans" id="text15982" x="90.803" y="798.874" xml:space="preserve"><tspan id="tspan15984" x="90.803" y="798.874" style="font-size:12px;font-style:normal;font-variant:normal;font-weight:400;font-stretch:normal;text-align:center;line-height:100%;letter-spacing:1.478055;writing-mode:lr-tb;text-anchor:middle;fill:#7bdeff;fill-opacity:1;font-family:SF Arborcrest Heavy;-inkscape-font-specification:'SF Arborcrest Heavy,'">www.openatrium.com</tspan></text></g></svg>